<svg id="svg" version="1.1" xmlns="http://www.w3.org/2000/svg" xmlns:xlink="http://www.w3.org/1999/xlink" width="400" height="400" viewBox="0, 0, 400,400">
<path id="path0" d="M118.811 39.127 C 118.268 39.211,117.462 39.531,117.022 39.839 C 116.582 40.148,115.821 40.400,115.332 40.400 C 114.842 40.400,113.360 41.300,112.038 42.400 C 110.717 43.500,109.469 44.400,109.267 44.400 C 109.064 44.400,108.687 44.654,108.429 44.965 C 108.171 45.276,107.024 45.653,105.880 45.803 C 104.736 45.953,103.423 46.315,102.963 46.606 C 102.502 46.898,101.112 47.324,99.873 47.553 C 98.634 47.782,97.120 48.225,96.510 48.538 C 95.899 48.850,94.414 49.240,93.210 49.403 C 92.005 49.566,90.655 49.933,90.210 50.218 C 89.764 50.503,88.328 50.865,87.018 51.024 C 85.708 51.183,83.908 51.643,83.018 52.048 C 82.128 52.452,80.680 52.792,79.800 52.805 C 78.920 52.817,77.480 53.175,76.600 53.600 C 75.720 54.025,74.590 54.379,74.088 54.386 C 73.586 54.394,72.107 54.850,70.800 55.400 C 69.493 55.950,68.058 56.400,67.611 56.400 C 67.163 56.400,66.125 56.760,65.304 57.200 C 64.484 57.640,63.359 58.006,62.806 58.013 C 62.253 58.019,60.900 58.468,59.800 59.009 C 58.700 59.550,57.562 59.994,57.271 59.996 C 56.981 59.998,56.473 60.270,56.143 60.599 C 55.814 60.929,55.074 61.317,54.499 61.461 C 53.924 61.605,52.831 62.146,52.071 62.662 C 51.311 63.178,50.443 63.600,50.144 63.600 C 49.845 63.600,49.600 63.778,49.600 63.995 C 49.600 64.212,49.015 64.667,48.300 65.006 C 46.107 66.045,43.600 67.642,43.600 67.998 C 43.600 68.184,43.060 68.455,42.400 68.600 C 41.740 68.745,41.200 69.027,41.200 69.226 C 41.200 69.426,40.615 69.834,39.900 70.133 C 39.185 70.432,38.353 70.974,38.051 71.338 C 37.749 71.702,37.299 72.001,37.051 72.002 C 36.803 72.004,35.430 72.813,34.000 73.800 C 32.570 74.787,31.273 75.596,31.118 75.598 C 30.963 75.599,30.389 76.005,29.843 76.500 C 27.898 78.261,26.668 79.200,26.305 79.200 C 24.998 79.200,13.254 90.505,10.967 93.966 C 9.278 96.521,8.073 98.512,7.800 99.200 C 7.668 99.530,7.130 100.700,6.604 101.800 C 6.077 102.900,5.537 104.317,5.403 104.948 C 5.270 105.580,4.899 106.358,4.580 106.677 C 4.261 106.996,3.994 107.739,3.987 108.329 C 3.980 108.918,3.612 110.390,3.170 111.600 C 2.245 114.129,1.655 123.629,1.618 136.600 C 1.597 143.866,1.208 147.200,0.381 147.200 C -0.626 147.200,-0.044 154.651,1.000 155.127 C 1.550 155.378,2.000 155.810,2.000 156.088 C 2.000 156.752,4.760 162.328,5.233 162.620 C 5.435 162.745,5.600 163.172,5.600 163.570 C 5.600 163.967,5.962 164.752,6.404 165.314 C 6.845 165.875,7.316 166.878,7.448 167.542 C 7.581 168.206,7.923 168.838,8.207 168.947 C 8.492 169.057,8.855 169.743,9.014 170.473 C 9.174 171.203,9.636 172.223,10.042 172.741 C 10.447 173.258,10.891 174.280,11.029 175.013 C 11.166 175.745,11.521 176.438,11.817 176.551 C 12.113 176.665,12.479 177.412,12.628 178.211 C 12.778 179.010,13.118 179.747,13.382 179.849 C 13.647 179.950,14.108 180.656,14.407 181.417 C 14.705 182.177,15.067 182.800,15.210 182.800 C 15.354 182.800,15.680 183.257,15.935 183.816 C 16.742 185.588,22.908 191.992,23.811 191.998 C 24.037 191.999,24.530 192.360,24.907 192.800 C 25.284 193.240,25.871 193.600,26.212 193.600 C 26.553 193.600,27.500 193.938,28.316 194.352 C 29.132 194.765,31.150 195.328,32.800 195.602 C 34.450 195.877,36.214 196.257,36.719 196.448 C 37.225 196.639,41.725 196.969,46.719 197.181 C 51.714 197.393,56.914 197.772,58.275 198.022 C 60.139 198.364,61.276 198.362,62.875 198.012 C 64.044 197.756,67.449 197.400,70.443 197.220 C 74.109 197.000,76.199 196.697,76.843 196.291 C 77.369 195.961,78.514 195.564,79.386 195.411 C 80.259 195.257,81.429 194.810,81.986 194.418 C 82.544 194.026,83.436 193.569,83.969 193.404 C 84.502 193.238,85.132 192.941,85.369 192.744 C 86.419 191.872,88.679 190.385,89.527 190.010 C 90.818 189.438,99.034 181.152,99.375 180.079 C 99.528 179.595,99.810 179.200,100.000 179.200 C 100.190 179.200,100.462 178.834,100.604 178.387 C 100.746 177.940,101.298 177.104,101.831 176.529 C 102.364 175.954,102.800 175.162,102.800 174.770 C 102.800 174.378,103.033 173.819,103.317 173.529 C 104.071 172.758,106.400 167.774,106.403 166.925 C 106.404 166.526,106.763 165.660,107.200 165.000 C 107.637 164.340,107.996 163.371,107.997 162.847 C 107.999 162.323,108.341 161.333,108.757 160.647 C 109.173 159.961,109.641 158.770,109.796 158.000 C 109.951 157.230,110.311 156.231,110.595 155.781 C 110.880 155.331,111.302 153.741,111.535 152.248 C 111.767 150.755,112.131 149.323,112.344 149.067 C 112.556 148.810,112.941 147.435,113.199 146.010 C 113.457 144.586,113.873 143.056,114.123 142.610 C 115.524 140.116,115.560 118.003,114.166 116.390 C 113.876 116.054,113.515 115.007,113.364 114.063 C 113.213 113.119,112.838 112.095,112.530 111.787 C 112.223 111.480,111.721 110.637,111.415 109.914 C 110.442 107.612,104.914 101.600,103.770 101.600 C 103.504 101.600,103.184 101.336,103.060 101.013 C 102.936 100.690,102.242 100.143,101.517 99.799 C 100.793 99.454,99.480 98.732,98.600 98.194 C 94.523 95.702,92.160 95.079,86.138 94.908 C 81.424 94.773,80.717 94.843,79.344 95.579 C 78.501 96.030,77.416 96.400,76.932 96.400 C 75.897 96.400,74.793 96.858,72.600 98.195 C 71.720 98.732,70.546 99.402,69.990 99.685 C 69.435 99.968,68.604 100.540,68.145 100.955 C 66.493 102.447,63.380 105.620,62.400 106.810 C 61.850 107.478,61.085 108.329,60.700 108.701 C 60.315 109.073,60.000 109.674,60.000 110.035 C 60.000 110.396,59.665 111.121,59.255 111.646 C 58.845 112.171,58.375 113.050,58.209 113.600 C 58.044 114.150,57.569 115.161,57.154 115.847 C 56.739 116.533,56.400 117.309,56.400 117.572 C 56.400 117.835,55.943 119.015,55.385 120.196 C 53.845 123.450,53.840 132.740,55.377 135.701 C 55.940 136.786,56.400 137.900,56.400 138.177 C 56.400 139.143,61.749 144.269,63.274 144.765 C 64.085 145.029,64.820 145.460,64.907 145.722 C 65.221 146.669,74.034 146.599,76.217 145.634 C 78.830 144.478,79.615 144.578,81.212 146.272 C 82.797 147.953,83.263 153.180,81.916 154.165 C 81.586 154.406,81.197 154.980,81.051 155.440 C 80.769 156.327,76.596 160.636,75.342 161.335 C 74.934 161.562,74.362 161.985,74.071 162.274 C 73.781 162.563,73.357 162.800,73.129 162.800 C 72.902 162.800,72.181 163.250,71.527 163.800 C 70.873 164.350,70.104 164.800,69.818 164.800 C 69.532 164.800,69.083 165.058,68.821 165.374 C 68.559 165.690,67.772 166.074,67.072 166.226 C 66.373 166.379,65.397 166.820,64.906 167.205 C 64.414 167.591,62.974 168.035,61.706 168.192 C 60.437 168.349,59.182 168.656,58.915 168.875 C 57.900 169.708,49.750 168.310,47.846 166.977 C 47.393 166.660,46.757 166.400,46.432 166.400 C 45.074 166.400,36.400 159.562,36.400 158.491 C 36.400 158.368,36.135 157.982,35.810 157.634 C 34.163 155.863,32.800 154.042,32.800 153.610 C 32.800 153.344,32.440 152.669,32.000 152.109 C 31.560 151.550,31.200 150.781,31.200 150.400 C 31.200 150.019,30.837 149.246,30.393 148.682 C 29.949 148.118,29.433 146.836,29.246 145.832 C 29.058 144.829,28.718 143.781,28.490 143.504 C 28.262 143.227,27.956 142.100,27.811 141.000 C 27.666 139.900,27.276 137.740,26.943 136.200 C 26.157 132.560,26.144 125.306,26.918 122.200 C 27.248 120.880,27.628 118.754,27.765 117.476 C 27.901 116.198,28.260 114.758,28.561 114.276 C 28.863 113.794,29.224 112.750,29.363 111.955 C 29.502 111.160,29.972 110.187,30.408 109.793 C 30.844 109.399,31.200 108.768,31.200 108.392 C 31.200 108.016,31.560 107.250,32.000 106.691 C 32.440 106.131,32.800 105.522,32.801 105.337 C 32.801 105.152,33.511 104.010,34.379 102.800 C 35.246 101.590,36.595 99.670,37.377 98.534 C 40.642 93.786,50.604 83.853,53.982 81.975 C 54.600 81.632,55.410 81.047,55.782 80.675 C 56.153 80.304,56.720 80.000,57.041 80.000 C 57.362 80.000,57.722 79.746,57.841 79.437 C 57.960 79.127,58.630 78.642,59.329 78.360 C 60.028 78.078,60.736 77.625,60.902 77.355 C 61.069 77.084,61.774 76.738,62.469 76.585 C 63.164 76.432,64.097 75.968,64.542 75.554 C 64.987 75.139,65.632 74.799,65.975 74.797 C 66.319 74.796,67.140 74.437,67.800 74.000 C 68.460 73.563,69.320 73.204,69.712 73.203 C 70.104 73.201,71.493 72.750,72.800 72.200 C 74.107 71.650,75.771 71.200,76.499 71.200 C 77.227 71.200,78.267 70.885,78.811 70.500 C 80.100 69.588,100.420 69.438,102.800 70.324 C 103.628 70.632,107.632 70.999,112.600 71.223 C 117.220 71.431,122.620 71.873,124.600 72.206 C 126.580 72.539,132.790 72.987,138.400 73.200 C 144.010 73.414,149.230 73.794,150.000 74.046 C 150.913 74.344,157.600 74.589,169.219 74.751 C 184.717 74.968,187.167 75.085,188.028 75.650 C 188.573 76.008,189.951 76.428,191.090 76.585 C 192.228 76.741,193.355 77.104,193.593 77.391 C 193.831 77.678,194.875 78.035,195.913 78.184 C 196.951 78.332,198.481 78.802,199.312 79.227 C 200.144 79.652,201.321 80.000,201.928 80.000 C 202.534 80.000,203.696 80.339,204.509 80.754 C 205.322 81.168,206.770 81.625,207.726 81.768 C 208.683 81.912,210.125 82.382,210.931 82.814 C 211.738 83.246,212.895 83.600,213.504 83.600 C 214.114 83.600,215.284 83.960,216.104 84.400 C 216.925 84.840,218.093 85.204,218.699 85.209 C 219.304 85.214,220.567 85.566,221.506 85.992 C 222.444 86.417,223.884 86.890,224.706 87.042 C 225.527 87.193,226.827 87.651,227.594 88.059 C 228.361 88.466,229.536 88.800,230.205 88.800 C 230.874 88.800,231.805 89.068,232.272 89.396 C 232.740 89.723,234.249 90.254,235.625 90.575 C 237.001 90.896,238.239 91.340,238.376 91.561 C 238.512 91.782,239.429 92.082,240.412 92.228 C 241.395 92.375,242.576 92.729,243.036 93.015 C 243.496 93.301,244.666 93.746,245.636 94.005 C 246.606 94.263,247.670 94.708,248.000 94.994 C 248.330 95.279,249.355 95.637,250.277 95.788 C 251.199 95.939,252.151 96.300,252.391 96.589 C 252.632 96.879,253.497 97.238,254.314 97.387 C 255.131 97.537,256.344 97.975,257.010 98.363 C 257.675 98.750,259.082 99.185,260.136 99.329 C 261.191 99.474,262.441 99.864,262.916 100.196 C 263.390 100.528,264.251 100.800,264.829 100.800 C 265.408 100.800,266.688 101.229,267.675 101.754 C 268.661 102.278,270.038 102.833,270.734 102.986 C 271.430 103.138,272.000 103.417,272.000 103.605 C 272.000 103.793,272.405 104.069,272.900 104.218 C 273.395 104.368,274.767 105.145,275.949 105.945 C 277.131 106.745,278.507 107.670,279.008 108.000 C 285.378 112.203,289.321 115.114,291.874 117.500 C 292.403 117.995,293.007 118.400,293.215 118.400 C 293.423 118.400,293.818 118.760,294.093 119.200 C 294.368 119.640,294.750 120.000,294.943 120.000 C 295.263 120.000,297.255 121.542,298.834 123.010 C 299.182 123.335,299.584 123.600,299.726 123.600 C 299.868 123.600,301.002 124.275,302.246 125.100 C 303.490 125.925,304.799 126.775,305.154 126.989 C 305.509 127.203,306.841 128.058,308.113 128.889 C 309.384 129.720,310.528 130.400,310.654 130.400 C 310.781 130.400,311.725 130.822,312.753 131.339 C 313.781 131.855,315.337 132.410,316.211 132.573 C 317.085 132.735,318.070 133.100,318.400 133.383 C 318.730 133.667,319.720 134.027,320.600 134.183 C 321.480 134.339,322.740 134.789,323.400 135.182 C 324.060 135.575,325.277 135.999,326.104 136.124 C 326.931 136.249,327.889 136.632,328.233 136.976 C 328.576 137.319,329.339 137.602,329.929 137.604 C 330.518 137.606,331.900 138.050,333.000 138.591 C 334.100 139.132,335.316 139.581,335.701 139.587 C 336.087 139.594,337.075 139.960,337.896 140.400 C 338.716 140.840,339.773 141.200,340.243 141.200 C 340.714 141.200,341.886 141.543,342.849 141.962 C 343.812 142.381,345.635 142.934,346.900 143.190 C 348.165 143.447,349.200 143.807,349.200 143.991 C 349.200 144.175,350.145 144.453,351.300 144.609 C 352.455 144.766,353.886 145.143,354.480 145.447 C 355.074 145.751,356.514 146.198,357.680 146.440 C 358.846 146.682,360.160 147.105,360.600 147.381 C 361.040 147.657,362.300 148.016,363.400 148.179 C 364.500 148.343,365.850 148.716,366.400 149.010 C 366.950 149.303,368.235 149.733,369.256 149.966 C 371.108 150.388,374.400 152.248,374.400 152.871 C 374.400 153.052,374.648 153.200,374.952 153.200 C 375.255 153.200,376.535 153.672,377.796 154.250 C 384.110 157.140,393.215 152.555,396.363 144.900 C 396.657 144.185,397.047 143.600,397.230 143.600 C 397.414 143.600,397.677 142.925,397.816 142.100 C 398.233 139.612,398.849 137.956,399.440 137.729 C 400.213 137.433,400.233 133.200,399.462 133.200 C 399.166 133.200,398.598 132.840,398.200 132.400 C 397.802 131.960,397.279 131.597,397.038 131.593 C 396.618 131.586,393.881 129.884,392.200 128.585 C 391.760 128.245,390.995 127.865,390.500 127.740 C 390.005 127.615,389.600 127.348,389.600 127.147 C 389.600 126.945,389.183 126.622,388.674 126.428 C 387.801 126.096,385.126 124.448,384.162 123.648 C 383.922 123.449,383.112 122.971,382.362 122.587 C 381.613 122.203,380.910 121.761,380.800 121.606 C 380.690 121.451,380.129 121.071,379.552 120.762 C 376.053 118.885,375.200 118.342,375.200 117.992 C 375.200 117.776,374.875 117.600,374.478 117.600 C 374.080 117.600,373.145 117.150,372.400 116.600 C 371.655 116.050,370.855 115.596,370.622 115.591 C 370.390 115.586,369.750 115.230,369.200 114.800 C 368.650 114.370,367.909 114.014,367.554 114.009 C 367.199 114.004,366.450 113.640,365.891 113.200 C 365.331 112.760,364.612 112.400,364.293 112.400 C 363.973 112.400,363.049 111.950,362.238 111.400 C 361.428 110.850,360.437 110.400,360.036 110.400 C 359.636 110.400,358.850 110.040,358.291 109.600 C 357.731 109.160,357.005 108.800,356.677 108.800 C 356.348 108.800,355.117 108.352,353.940 107.804 C 352.763 107.256,351.255 106.806,350.589 106.804 C 349.923 106.802,348.933 106.485,348.389 106.100 C 347.505 105.474,346.173 105.397,335.800 105.369 C 324.972 105.340,324.076 105.283,322.342 104.510 C 321.320 104.055,319.880 103.553,319.142 103.396 C 318.404 103.239,317.530 102.882,317.200 102.603 C 316.870 102.323,316.150 101.959,315.600 101.792 C 315.050 101.626,314.171 101.155,313.646 100.745 C 313.121 100.335,312.471 100.000,312.200 100.000 C 311.929 100.000,311.264 99.651,310.722 99.225 C 310.180 98.798,309.256 98.329,308.668 98.181 C 308.081 98.034,307.600 97.776,307.600 97.608 C 307.600 97.440,306.602 96.694,305.383 95.951 C 304.164 95.208,302.731 94.240,302.199 93.800 C 300.676 92.541,299.565 91.728,297.200 90.144 C 295.990 89.334,294.910 88.558,294.800 88.421 C 294.690 88.283,293.700 87.593,292.600 86.888 C 291.500 86.182,290.180 85.244,289.666 84.803 C 289.152 84.361,288.499 84.000,288.215 84.000 C 287.931 84.000,287.478 83.735,287.209 83.411 C 286.940 83.086,286.063 82.704,285.260 82.560 C 284.457 82.416,283.530 82.068,283.200 81.787 C 282.870 81.505,281.880 81.082,281.000 80.847 C 280.120 80.612,279.034 80.162,278.586 79.847 C 278.138 79.532,276.878 79.142,275.786 78.979 C 274.694 78.816,273.440 78.456,273.000 78.180 C 272.560 77.903,271.390 77.550,270.400 77.396 C 269.410 77.241,267.790 76.789,266.800 76.390 C 265.810 75.992,264.190 75.552,263.200 75.413 C 262.210 75.274,261.025 74.914,260.567 74.614 C 260.108 74.314,258.848 73.949,257.767 73.801 C 256.685 73.654,254.764 73.188,253.498 72.767 C 252.233 72.345,250.378 72.000,249.376 72.000 C 248.375 72.000,246.801 71.656,245.878 71.236 C 244.955 70.816,243.480 70.343,242.600 70.186 C 241.720 70.028,240.730 69.665,240.400 69.380 C 240.070 69.096,239.260 68.734,238.600 68.577 C 237.940 68.421,237.130 68.077,236.800 67.814 C 236.470 67.551,235.345 67.020,234.300 66.635 C 233.255 66.249,232.400 65.791,232.400 65.617 C 232.400 65.443,231.827 65.185,231.126 65.045 C 230.426 64.905,229.571 64.545,229.226 64.246 C 228.882 63.946,227.939 63.489,227.132 63.230 C 226.325 62.971,225.448 62.498,225.183 62.180 C 224.918 61.861,224.298 61.600,223.805 61.600 C 223.312 61.600,222.479 61.267,221.954 60.861 C 221.429 60.455,220.474 59.993,219.832 59.836 C 219.189 59.679,218.220 59.202,217.678 58.775 C 217.136 58.349,216.401 57.999,216.046 57.997 C 215.691 57.996,214.860 57.637,214.200 57.200 C 213.540 56.763,212.633 56.404,212.185 56.403 C 211.736 56.401,210.656 56.034,209.785 55.588 C 208.913 55.141,207.063 54.613,205.673 54.414 C 204.283 54.215,202.860 53.816,202.512 53.526 C 201.490 52.678,185.864 52.784,184.000 53.652 C 183.230 54.010,181.635 54.424,180.456 54.571 C 179.277 54.719,177.921 55.096,177.442 55.409 C 176.964 55.722,175.409 56.147,173.986 56.352 C 172.564 56.558,170.860 57.011,170.200 57.360 C 169.540 57.709,168.370 58.000,167.600 58.006 C 166.830 58.013,165.442 58.361,164.517 58.782 C 163.591 59.202,161.971 59.664,160.917 59.807 C 159.862 59.951,158.190 60.365,157.200 60.728 C 155.862 61.218,154.005 61.389,149.963 61.394 C 144.109 61.400,143.491 61.216,143.014 59.315 C 142.869 58.737,142.402 57.820,141.975 57.278 C 141.549 56.736,141.200 55.996,141.200 55.635 C 141.200 55.274,140.885 54.694,140.500 54.348 C 140.115 54.001,139.440 53.115,139.000 52.378 C 138.560 51.642,138.008 50.724,137.773 50.339 C 137.538 49.954,136.072 48.415,134.515 46.919 C 130.539 43.100,129.737 42.400,129.333 42.400 C 129.138 42.400,128.533 42.085,127.989 41.700 C 127.093 41.066,124.143 40.040,121.000 39.269 C 120.340 39.108,119.355 39.044,118.811 39.127 M199.063 148.537 C 197.777 149.030,196.553 149.740,196.343 150.116 C 196.132 150.492,195.699 150.800,195.380 150.800 C 195.061 150.800,194.800 150.953,194.800 151.141 C 194.800 151.328,194.305 152.028,193.700 152.697 C 193.095 153.366,192.150 154.573,191.600 155.380 C 191.050 156.187,190.331 157.138,190.003 157.493 C 189.674 157.848,189.224 158.443,189.003 158.816 C 188.252 160.081,187.033 161.794,185.709 163.448 C 184.983 164.354,183.897 165.828,183.295 166.725 C 182.693 167.621,181.016 169.580,179.569 171.077 C 178.122 172.575,176.822 174.115,176.681 174.500 C 176.540 174.885,176.252 175.200,176.040 175.200 C 175.827 175.200,175.538 175.566,175.396 176.013 C 175.254 176.460,174.747 177.266,174.269 177.803 C 173.791 178.341,172.950 179.433,172.400 180.229 C 171.850 181.026,171.085 181.970,170.700 182.328 C 170.315 182.685,170.000 183.128,170.000 183.312 C 170.000 183.742,167.558 186.899,166.900 187.320 C 166.625 187.496,166.400 187.821,166.400 188.043 C 166.400 188.409,164.728 190.699,163.200 192.427 C 162.870 192.800,162.240 193.575,161.800 194.149 C 161.360 194.722,160.640 195.637,160.200 196.180 C 159.760 196.724,159.091 197.581,158.714 198.084 C 158.041 198.982,155.887 201.655,154.902 202.814 C 154.628 203.136,153.253 204.840,151.847 206.600 C 150.442 208.360,148.736 210.430,148.058 211.200 C 144.334 215.425,142.672 217.362,141.000 219.427 C 140.340 220.242,139.148 221.649,138.350 222.554 C 137.553 223.459,136.473 224.714,135.950 225.342 C 135.428 225.970,134.727 226.783,134.393 227.149 C 134.060 227.514,131.980 229.970,129.771 232.607 C 125.419 237.802,123.479 240.052,122.141 241.454 C 121.668 241.949,121.218 242.523,121.141 242.728 C 120.981 243.151,118.241 246.331,115.700 249.043 C 114.765 250.041,114.000 250.959,114.000 251.083 C 114.000 251.207,113.595 251.704,113.100 252.188 C 112.605 252.672,111.750 253.660,111.200 254.383 C 110.650 255.106,109.840 256.109,109.400 256.611 C 108.960 257.113,107.880 258.383,107.000 259.433 C 106.120 260.483,104.950 261.841,104.400 262.449 C 103.038 263.957,102.393 264.719,101.075 266.381 C 99.479 268.393,96.758 271.589,95.700 272.696 C 95.205 273.213,94.800 273.802,94.800 274.004 C 94.800 274.206,94.440 274.565,94.000 274.800 C 93.560 275.035,93.200 275.402,93.200 275.615 C 93.200 275.828,91.932 277.577,90.382 279.501 C 88.832 281.426,87.299 283.360,86.975 283.800 C 86.310 284.704,84.059 287.526,83.295 288.414 C 82.669 289.141,80.866 291.499,79.800 292.985 C 79.360 293.599,78.595 294.599,78.100 295.208 C 77.605 295.817,77.200 296.454,77.200 296.624 C 77.200 296.794,76.932 297.218,76.605 297.566 C 75.480 298.766,72.000 303.643,72.000 304.021 C 72.000 304.230,71.825 304.400,71.610 304.400 C 71.396 304.400,70.923 304.985,70.558 305.700 C 70.194 306.415,69.645 307.270,69.339 307.600 C 68.761 308.223,67.185 310.260,65.800 312.177 C 65.360 312.786,63.794 314.840,62.319 316.742 C 60.845 318.644,59.270 320.678,58.819 321.263 C 58.369 321.848,58.000 322.483,58.000 322.674 C 58.000 322.866,57.640 323.330,57.200 323.707 C 56.760 324.084,56.400 324.633,56.400 324.926 C 56.400 325.220,55.950 325.883,55.400 326.400 C 54.850 326.917,54.400 327.538,54.400 327.781 C 54.400 328.024,54.040 328.530,53.600 328.907 C 53.160 329.284,52.800 329.930,52.800 330.342 C 52.800 330.755,52.456 331.529,52.037 332.063 C 51.617 332.597,51.052 334.155,50.783 335.526 C 50.513 336.898,50.136 338.116,49.946 338.233 C 49.388 338.578,49.549 341.410,50.198 342.654 C 50.526 343.284,50.796 344.127,50.798 344.526 C 50.801 345.456,51.560 346.907,52.258 347.320 C 52.556 347.496,52.800 347.867,52.800 348.145 C 52.800 349.620,56.267 350.924,57.200 349.800 C 57.474 349.470,57.937 349.200,58.229 349.200 C 58.521 349.200,58.904 348.974,59.080 348.698 C 59.600 347.882,62.307 345.991,63.601 345.540 C 64.260 345.310,64.800 344.979,64.800 344.804 C 64.800 344.630,65.475 344.188,66.300 343.823 C 67.125 343.458,68.250 342.902,68.800 342.586 C 69.350 342.270,70.214 342.009,70.720 342.006 C 71.226 342.003,72.216 341.688,72.920 341.306 C 73.858 340.797,75.536 340.554,79.200 340.395 C 84.412 340.169,84.952 339.990,87.613 337.600 C 89.544 335.866,90.919 334.800,91.224 334.800 C 91.412 334.800,92.338 334.082,93.283 333.205 C 94.227 332.328,95.122 331.608,95.271 331.605 C 95.421 331.602,95.785 331.375,96.081 331.100 C 97.272 329.994,99.973 328.000,100.280 328.000 C 100.460 328.000,100.832 327.640,101.107 327.200 C 101.382 326.760,101.810 326.400,102.058 326.400 C 102.305 326.400,102.911 325.995,103.404 325.500 C 103.897 325.005,104.957 324.150,105.760 323.600 C 107.130 322.661,108.619 321.484,110.000 320.248 C 110.330 319.952,111.050 319.480,111.600 319.197 C 112.150 318.914,112.744 318.439,112.920 318.142 C 113.096 317.844,113.494 317.600,113.806 317.600 C 114.117 317.600,114.565 317.240,114.800 316.800 C 115.035 316.360,115.470 316.000,115.765 316.000 C 116.060 316.000,116.546 315.706,116.845 315.346 C 117.315 314.779,118.838 313.698,121.265 312.208 C 121.630 311.984,122.791 311.197,123.844 310.460 C 124.897 309.723,126.173 308.962,126.680 308.770 C 127.186 308.577,127.600 308.257,127.600 308.058 C 127.600 307.860,128.177 307.458,128.883 307.166 C 129.588 306.873,130.473 306.357,130.849 306.017 C 131.224 305.678,132.537 304.525,133.766 303.455 C 137.624 300.096,136.522 297.989,130.920 298.011 C 128.096 298.021,123.413 299.048,122.389 299.881 C 122.065 300.144,120.486 301.534,118.879 302.970 C 109.424 311.420,103.450 302.608,112.463 293.506 C 113.745 292.210,114.846 290.699,114.993 290.034 C 115.135 289.386,115.498 288.650,115.800 288.400 C 116.102 288.150,116.461 287.432,116.599 286.805 C 116.736 286.179,117.198 285.263,117.625 284.772 C 118.051 284.280,118.401 283.590,118.402 283.239 C 118.404 282.887,119.213 281.430,120.200 280.000 C 121.187 278.570,121.996 277.203,121.998 276.962 C 121.999 276.721,122.360 276.198,122.800 275.800 C 123.240 275.402,123.600 274.848,123.600 274.569 C 123.600 274.290,124.050 273.527,124.600 272.873 C 125.150 272.219,125.600 271.529,125.600 271.338 C 125.600 271.148,125.960 270.768,126.400 270.493 C 126.840 270.218,127.200 269.795,127.200 269.553 C 127.200 269.311,127.555 268.727,127.990 268.256 C 128.424 267.785,129.689 266.230,130.800 264.800 C 131.911 263.370,133.401 261.506,134.110 260.657 C 134.820 259.808,135.562 258.818,135.759 258.457 C 136.227 257.601,139.104 254.105,142.692 250.034 C 147.301 244.804,151.594 240.123,153.030 238.764 C 163.239 229.095,176.876 214.835,179.579 211.000 C 180.665 209.460,181.802 207.930,182.106 207.600 C 182.410 207.270,182.887 206.428,183.166 205.729 C 183.445 205.030,183.927 204.360,184.237 204.241 C 184.546 204.122,184.800 203.684,184.800 203.266 C 184.800 202.849,185.160 202.050,185.600 201.491 C 186.600 200.220,186.621 198.690,185.657 197.284 C 181.469 191.171,180.137 186.462,181.789 183.600 C 182.106 183.050,182.542 182.213,182.758 181.739 C 182.974 181.265,183.910 180.185,184.838 179.339 C 185.766 178.493,187.726 176.585,189.194 175.100 C 190.662 173.615,192.155 172.400,192.512 172.400 C 192.868 172.400,193.337 172.085,193.552 171.700 C 194.060 170.791,202.411 170.633,202.709 171.526 C 202.805 171.815,203.306 172.212,203.823 172.409 C 204.962 172.842,209.690 178.497,210.077 179.889 C 210.229 180.437,210.614 181.182,210.932 181.543 C 211.251 181.904,211.631 182.767,211.779 183.461 C 211.926 184.154,212.396 185.408,212.823 186.246 C 213.250 187.084,213.600 188.229,213.600 188.791 C 213.600 189.352,213.960 190.484,214.400 191.304 C 214.840 192.125,215.200 193.182,215.200 193.651 C 215.200 194.121,215.541 195.067,215.957 195.753 C 216.373 196.439,216.841 197.630,216.996 198.400 C 217.151 199.170,217.528 200.194,217.832 200.675 C 218.137 201.156,218.572 203.046,218.800 204.875 C 219.028 206.704,219.395 209.190,219.616 210.400 C 219.837 211.610,220.165 219.080,220.346 227.000 C 220.613 238.702,220.790 241.625,221.290 242.600 C 221.629 243.260,222.040 244.786,222.203 245.990 C 222.366 247.195,222.727 248.545,223.005 248.990 C 223.283 249.436,223.726 250.736,223.990 251.880 C 224.254 253.024,224.724 254.171,225.035 254.429 C 225.346 254.687,225.600 255.106,225.600 255.360 C 225.600 255.614,226.185 256.357,226.900 257.011 L 228.200 258.200 236.666 258.281 C 244.342 258.354,245.274 258.438,246.660 259.181 C 247.501 259.631,248.353 260.000,248.555 260.000 C 248.757 260.000,249.866 260.855,251.020 261.900 C 253.789 264.409,254.117 264.656,255.078 264.961 C 255.527 265.104,256.216 265.576,256.609 266.010 C 257.002 266.445,257.557 266.800,257.841 266.800 C 258.483 266.800,263.686 271.055,267.160 274.419 C 267.512 274.760,268.520 275.904,269.400 276.961 C 270.280 278.018,271.495 279.473,272.100 280.194 C 272.705 280.915,273.200 281.617,273.200 281.753 C 273.200 281.889,273.515 282.349,273.900 282.775 C 275.326 284.353,278.751 289.304,279.968 291.546 C 280.281 292.122,280.776 292.833,281.068 293.125 C 281.361 293.418,281.600 293.892,281.600 294.180 C 281.600 294.467,281.885 294.938,282.233 295.227 C 282.853 295.742,283.710 297.205,285.029 300.000 C 285.393 300.770,285.825 301.490,285.989 301.600 C 286.154 301.710,286.596 302.340,286.972 303.000 C 288.314 305.358,289.422 307.132,290.900 309.291 C 291.725 310.497,292.400 311.689,292.400 311.941 C 292.400 312.194,292.562 312.400,292.760 312.400 C 293.105 312.400,294.368 314.193,295.560 316.374 C 295.869 316.938,296.364 317.544,296.660 317.720 C 296.957 317.896,297.200 318.223,297.200 318.447 C 297.200 318.670,297.650 319.443,298.200 320.164 C 298.750 320.886,299.208 321.639,299.219 321.838 C 299.229 322.037,299.904 322.702,300.719 323.316 C 304.579 326.223,307.436 328.489,307.800 328.932 C 308.149 329.357,310.578 331.085,313.898 333.269 C 314.457 333.637,315.024 334.091,315.157 334.277 C 315.291 334.464,315.850 334.837,316.400 335.108 C 316.950 335.378,318.210 336.217,319.200 336.973 C 320.190 337.728,321.579 338.467,322.286 338.615 C 322.993 338.763,323.780 339.135,324.035 339.442 C 324.290 339.749,324.698 340.000,324.943 340.000 C 325.363 340.000,327.773 341.074,331.400 342.877 C 332.672 343.509,333.902 343.685,337.400 343.736 L 341.800 343.800 341.920 340.800 C 342.014 338.459,341.869 337.449,341.259 336.200 C 340.829 335.320,340.354 333.835,340.203 332.900 C 340.053 331.965,339.779 331.200,339.596 331.200 C 339.412 331.200,339.045 330.525,338.780 329.700 C 338.516 328.875,338.079 327.930,337.810 327.600 C 337.166 326.810,334.800 321.859,334.800 321.302 C 334.800 321.062,334.639 320.807,334.442 320.733 C 334.245 320.660,333.750 320.038,333.342 319.352 C 332.934 318.666,331.340 316.258,329.800 314.001 C 328.260 311.744,326.730 309.495,326.400 309.004 C 326.070 308.513,324.900 306.805,323.800 305.209 C 322.700 303.612,321.548 301.832,321.240 301.253 C 320.708 300.252,318.143 296.944,316.818 295.549 C 316.478 295.191,315.843 294.471,315.407 293.949 C 314.971 293.427,313.666 291.888,312.507 290.530 C 311.348 289.171,310.400 287.970,310.400 287.862 C 310.400 287.754,309.725 286.950,308.900 286.076 C 307.010 284.073,305.674 282.443,304.400 280.580 C 303.850 279.777,303.085 278.777,302.700 278.360 C 302.315 277.942,302.000 277.518,302.000 277.418 C 302.000 277.171,298.172 271.958,297.410 271.166 C 297.075 270.818,296.800 270.345,296.800 270.115 C 296.800 269.886,296.519 269.465,296.175 269.179 C 295.832 268.894,294.893 267.657,294.089 266.430 C 293.285 265.204,292.495 264.105,292.332 263.988 C 291.913 263.686,289.616 260.257,289.607 259.918 C 289.603 259.763,289.195 259.201,288.700 258.670 C 286.972 256.814,286.000 255.529,286.000 255.100 C 286.000 254.862,285.726 254.382,285.391 254.034 C 284.732 253.348,283.192 251.295,281.600 248.978 C 281.050 248.177,280.285 247.230,279.900 246.872 C 279.515 246.515,279.200 246.058,279.200 245.857 C 279.200 245.656,278.795 245.089,278.300 244.596 C 277.805 244.103,276.950 243.043,276.400 242.240 C 275.850 241.438,275.040 240.342,274.600 239.806 C 274.160 239.270,273.487 238.419,273.104 237.916 C 272.721 237.412,271.956 236.460,271.404 235.800 C 270.852 235.140,270.401 234.491,270.400 234.358 C 270.400 234.226,269.995 233.658,269.500 233.097 C 269.005 232.536,268.240 231.599,267.800 231.013 C 267.360 230.428,266.725 229.640,266.388 229.263 C 266.052 228.885,265.152 227.692,264.388 226.611 C 263.625 225.529,262.730 224.331,262.400 223.948 C 262.070 223.564,261.440 222.770,261.000 222.182 C 260.560 221.594,259.705 220.524,259.100 219.804 C 258.495 219.084,258.000 218.353,258.000 218.181 C 258.000 218.008,257.738 217.582,257.419 217.234 C 255.741 215.405,255.263 214.813,253.991 212.988 C 252.476 210.813,251.080 208.934,250.285 208.000 C 250.004 207.670,249.245 206.590,248.598 205.600 C 247.408 203.778,246.026 201.895,245.075 200.800 C 244.788 200.470,243.888 199.210,243.074 198.000 C 240.771 194.577,240.254 193.858,239.501 193.025 C 239.116 192.598,238.800 192.103,238.800 191.925 C 238.800 191.746,238.440 191.195,238.000 190.700 C 236.608 189.134,236.210 188.624,234.788 186.588 C 234.025 185.495,232.641 183.610,231.714 182.400 C 230.787 181.190,229.662 179.722,229.214 179.137 C 228.766 178.552,228.400 177.883,228.400 177.651 C 228.400 177.418,228.040 177.035,227.600 176.800 C 227.160 176.565,226.800 176.117,226.800 175.806 C 226.800 175.494,226.575 175.096,226.299 174.920 C 226.023 174.744,225.040 173.610,224.114 172.400 C 223.187 171.190,221.798 169.480,221.027 168.600 C 220.256 167.720,219.395 166.736,219.113 166.413 C 218.134 165.292,213.967 160.195,213.285 159.284 C 212.908 158.781,212.320 158.061,211.979 157.684 C 209.933 155.431,207.600 152.454,207.600 152.097 C 207.600 151.413,204.775 148.800,204.036 148.800 C 203.661 148.800,203.004 148.536,202.576 148.213 C 201.618 147.488,201.859 147.465,199.063 148.537 " stroke="none" fill="#6666ff" fill-rule="evenodd"></path>

</svg>
