<?xml version="1.0" encoding="utf-8"?>
<!-- Generator: Adobe Illustrator 12.0.0, SVG Export Plug-In . SVG Version: 6.00 Build 51448)  -->
<!DOCTYPE svg PUBLIC "-//W3C//DTD SVG 1.1//EN" "http://www.w3.org/Graphics/SVG/1.1/DTD/svg11.dtd" [
	<!ENTITY ns_svg "http://www.w3.org/2000/svg">
	<!ENTITY ns_xlink "http://www.w3.org/1999/xlink">
]>
<svg  version="1.1" id="Layer_1" xmlns="&ns_svg;" xmlns:xlink="&ns_xlink;" width="541.051" height="357.224"
	 viewBox="0 0 541.051 357.224" overflow="visible" enable-background="new 0 0 541.051 357.224" xml:space="preserve">
<g>
	<polygon fill="#91278F" stroke="#000000" points="177.456,145.391 168.161,161.49 205.339,161.49 196.045,145.392 	"/>
	<g>
		<polygon fill="#5B57A6" stroke="#000000" points="205.339,161.49 223.927,161.489 205.337,129.293 196.045,145.391 		"/>
		<polygon fill="#5B57A6" stroke="#000000" points="196.045,145.391 205.338,129.293 168.16,129.293 177.455,145.391 		"/>
		<polygon fill="#5B57A6" stroke="#000000" points="177.455,145.391 168.16,129.293 149.572,161.49 168.161,161.49 		"/>
	</g>
	<g>
		<polygon fill="#0054A6" stroke="#000000" points="177.455,113.195 168.16,129.293 205.338,129.293 196.043,113.195 		"/>
		<polygon fill="#0054A6" stroke="#000000" points="223.927,161.489 242.517,161.488 223.926,129.293 214.633,145.391 		"/>
		<polygon fill="#0054A6" stroke="#000000" points="158.867,145.392 149.572,129.294 130.984,161.492 149.572,161.49 		"/>
		<polygon fill="#0054A6" stroke="#000000" points="149.572,129.294 158.867,145.392 177.455,113.195 158.867,113.195 		"/>
		<polygon fill="#0054A6" stroke="#000000" points="214.632,113.194 196.043,113.195 214.633,145.391 223.926,129.293 		"/>
	</g>
	<g>
		<polygon fill="#4B9189" stroke="#000000" points="205.337,97.096 196.043,113.195 233.221,113.195 223.926,97.096 		"/>
		<polygon fill="#4B9189" stroke="#000000" points="149.573,97.098 140.279,113.197 177.457,113.197 168.161,97.099 		"/>
		<polygon fill="#4B9189" stroke="#000000" points="196.046,113.197 205.34,97.098 168.163,97.1 177.457,113.197 		"/>
		<polygon fill="#4B9189" stroke="#000000" points="140.279,145.393 130.983,129.295 112.396,161.493 130.984,161.492 		"/>
		<polygon fill="#4B9189" stroke="#000000" points="130.983,129.295 140.279,145.393 158.867,113.196 140.278,113.197 		"/>
		<polygon fill="#4B9189" stroke="#000000" points="242.517,161.488 261.104,161.488 242.516,129.292 233.221,145.39 		"/>
		<polygon fill="#4B9189" stroke="#000000" points="233.221,113.194 214.632,113.194 233.221,145.39 242.516,129.292 		"/>
	</g>
	<g>
		<polygon fill="#8CC63F" stroke="#000000" points="177.456,80.998 168.161,97.097 205.339,97.097 196.045,80.999 		"/>
		<polygon fill="#8CC63F" stroke="#000000" points="168.161,97.097 177.455,80.998 140.277,81 149.572,97.097 		"/>
		<polygon fill="#8CC63F" stroke="#000000" points="223.929,97.096 233.222,80.998 196.045,80.999 205.339,97.096 		"/>
		<polygon fill="#8CC63F" stroke="#000000" points="121.69,145.394 112.396,129.296 93.808,161.494 112.396,161.493 		"/>
		<polygon fill="#8CC63F" stroke="#000000" points="149.572,97.098 140.277,81 121.69,113.197 140.278,113.196 		"/>
		<polygon fill="#8CC63F" stroke="#000000" points="112.396,129.296 121.69,145.394 140.278,113.197 121.69,113.197 		"/>
		<polygon fill="#8CC63F" stroke="#000000" points="261.105,161.488 279.693,161.487 261.103,129.291 251.81,145.39 		"/>
		<polygon fill="#8CC63F" stroke="#000000" points="233.221,113.194 251.81,113.193 233.219,80.997 223.926,97.095 		"/>
		<polygon fill="#8CC63F" stroke="#000000" points="251.81,113.193 233.221,113.194 251.81,145.39 261.103,129.291 		"/>
	</g>
	<g>
		<polygon fill="#CADB2A" stroke="#000000" points="205.337,64.899 196.042,80.998 233.221,80.998 223.925,64.899 		"/>
		<polygon fill="#CADB2A" stroke="#000000" points="149.572,64.901 140.277,81 177.455,81 168.16,64.901 		"/>
		<polygon fill="#CADB2A" stroke="#000000" points="196.045,81 205.339,64.901 168.161,64.902 177.456,81 		"/>
		<polygon fill="#CADB2A" stroke="#000000" points="103.103,145.395 93.807,129.297 75.22,161.495 93.808,161.494 		"/>
		<polygon fill="#CADB2A" stroke="#000000" points="130.984,97.099 121.688,81 103.102,113.198 121.69,113.197 		"/>
		<polygon fill="#CADB2A" stroke="#000000" points="93.807,129.297 103.103,145.395 121.69,113.197 103.102,113.198 		"/>
		<polygon fill="#CADB2A" stroke="#000000" points="121.688,81 130.984,97.099 149.572,64.901 130.983,64.902 		"/>
		<polygon fill="#CADB2A" stroke="#000000" points="279.693,161.487 298.283,161.487 279.691,129.291 270.398,145.388 		"/>
		<polygon fill="#CADB2A" stroke="#000000" points="251.81,113.193 270.396,113.192 251.807,80.996 242.514,97.094 		"/>
		<polygon fill="#CADB2A" stroke="#000000" points="270.396,113.192 251.808,113.193 270.398,145.388 279.691,129.291 		"/>
		<polygon fill="#CADB2A" stroke="#000000" points="242.512,64.897 223.924,64.898 242.514,97.094 251.807,80.996 		"/>
	</g>
	<g>
		<polygon fill="#FFF200" stroke="#000000" points="121.69,48.804 112.396,64.903 149.573,64.903 140.279,48.805 		"/>
		<polygon fill="#FFF200" stroke="#000000" points="233.219,48.8 223.924,64.898 261.103,64.898 251.808,48.8 		"/>
		<polygon fill="#FFF200" stroke="#000000" points="177.456,48.803 168.161,64.901 205.339,64.901 196.045,48.803 		"/>
		<polygon fill="#FFF200" stroke="#000000" points="168.161,64.901 177.455,48.803 140.277,48.804 149.572,64.901 		"/>
		<polygon fill="#FFF200" stroke="#000000" points="223.927,64.901 233.222,48.802 196.045,48.803 205.339,64.901 		"/>
		<polygon fill="#FFF200" stroke="#000000" points="84.514,145.396 75.218,129.298 56.631,161.496 75.22,161.495 		"/>
		<polygon fill="#FFF200" stroke="#000000" points="112.396,97.1 103.101,81.001 84.514,113.2 103.102,113.198 		"/>
		<polygon fill="#FFF200" stroke="#000000" points="75.218,129.298 84.514,145.396 103.102,113.199 84.514,113.2 		"/>
		<polygon fill="#FFF200" stroke="#000000" points="103.101,81.001 112.396,97.1 130.983,64.903 112.396,64.903 		"/>
		<polygon fill="#FFF200" stroke="#000000" points="298.283,161.487 316.871,161.487 298.281,129.291 288.988,145.388 		"/>
		<polygon fill="#FFF200" stroke="#000000" points="270.398,113.192 288.986,113.192 270.396,80.996 261.103,97.093 		"/>
		<polygon fill="#FFF200" stroke="#000000" points="288.986,113.192 270.396,113.192 288.988,145.388 298.281,129.291 		"/>
		<polygon fill="#FFF200" stroke="#000000" points="261.103,64.897 242.512,64.897 261.103,97.093 270.396,80.996 		"/>
	</g>
	<g>
		<polygon fill="#FFC20E" stroke="#000000" points="205.337,32.701 196.042,48.8 233.219,48.8 223.925,32.702 		"/>
		<polygon fill="#FFC20E" stroke="#000000" points="149.573,32.705 140.279,48.803 177.457,48.803 168.162,32.705 		"/>
		<polygon fill="#FFC20E" stroke="#000000" points="140.279,48.803 149.572,32.705 112.395,32.706 121.689,48.803 		"/>
		<polygon fill="#FFC20E" stroke="#000000" points="196.045,48.802 205.339,32.704 168.162,32.705 177.457,48.802 		"/>
		<polygon fill="#FFC20E" stroke="#000000" points="251.808,48.799 261.103,32.701 223.925,32.702 233.221,48.799 		"/>
		<polygon fill="#FFC20E" stroke="#000000" points="65.926,145.396 56.63,129.298 38.043,161.496 56.632,161.496 		"/>
		<polygon fill="#FFC20E" stroke="#000000" points="93.808,97.1 84.513,81.001 65.925,113.2 84.514,113.198 		"/>
		<polygon fill="#FFC20E" stroke="#000000" points="121.69,48.804 112.395,32.706 93.807,64.903 112.396,64.902 		"/>
		<polygon fill="#FFC20E" stroke="#000000" points="56.63,129.298 65.926,145.396 84.514,113.2 65.925,113.2 		"/>
		<polygon fill="#FFC20E" stroke="#000000" points="84.513,81.001 93.808,97.1 112.396,64.903 93.807,64.903 		"/>
		<polygon fill="#FFC20E" stroke="#000000" points="316.873,161.486 335.458,161.486 316.869,129.29 307.576,145.388 		"/>
		<polygon fill="#FFC20E" stroke="#000000" points="261.104,64.896 279.691,64.896 261.102,32.7 251.808,48.798 		"/>
		<polygon fill="#FFC20E" stroke="#000000" points="288.988,113.192 307.576,113.191 288.986,80.995 279.693,97.093 		"/>
		<polygon fill="#FFC20E" stroke="#000000" points="307.576,113.191 288.988,113.192 307.576,145.388 316.869,129.29 		"/>
		<polygon fill="#FFC20E" stroke="#000000" points="279.691,64.896 261.103,64.897 279.693,97.093 288.986,80.995 		"/>
	</g>
	<g>
		<polygon fill="#F7931D" stroke="#000000" points="177.454,16.604 168.159,32.703 205.337,32.703 196.043,16.604 		"/>
		<polygon fill="#F7931D" stroke="#000000" points="233.218,16.601 223.922,32.699 261.102,32.699 251.807,16.602 		"/>
		<polygon fill="#F7931D" stroke="#000000" points="121.69,16.608 112.396,32.706 149.573,32.706 140.279,16.608 		"/>
		<polygon fill="#F7931D" stroke="#000000" points="168.163,32.705 177.457,16.606 140.279,16.608 149.574,32.705 		"/>
		<polygon fill="#F7931D" stroke="#000000" points="223.926,32.703 233.221,16.604 196.043,16.604 205.337,32.703 		"/>
		<polygon fill="#F7931D" stroke="#000000" points="47.337,145.396 38.042,129.298 19.455,161.496 38.043,161.496 		"/>
		<polygon fill="#F7931D" stroke="#000000" points="75.219,97.1 65.924,81.001 47.337,113.2 65.925,113.198 		"/>
		<polygon fill="#F7931D" stroke="#000000" points="103.102,48.804 93.806,32.706 75.219,64.903 93.807,64.902 		"/>
		<polygon fill="#F7931D" stroke="#000000" points="38.042,129.298 47.337,145.396 65.925,113.2 47.337,113.2 		"/>
		<polygon fill="#F7931D" stroke="#000000" points="93.806,32.706 103.102,48.804 121.689,16.608 103.101,16.608 		"/>
		<polygon fill="#F7931D" stroke="#000000" points="65.924,81.001 75.219,97.1 93.807,64.903 75.219,64.903 		"/>
		<polygon fill="#F7931D" stroke="#000000" points="335.458,161.486 354.048,161.486 335.458,129.29 326.166,145.388 		"/>
		<polygon fill="#F7931D" stroke="#000000" points="279.691,64.896 298.281,64.896 279.691,32.7 270.396,48.798 		"/>
		<polygon fill="#F7931D" stroke="#000000" points="307.576,113.192 326.164,113.191 307.574,80.995 298.281,97.093 		"/>
		<polygon fill="#F7931D" stroke="#000000" points="326.164,113.191 307.576,113.192 326.166,145.388 335.458,129.29 		"/>
		<polygon fill="#F7931D" stroke="#000000" points="298.281,64.896 279.691,64.897 298.281,97.093 307.574,80.995 		"/>
		<polygon fill="#F7931D" stroke="#000000" points="270.396,16.602 251.807,16.603 270.396,48.798 279.691,32.701 		"/>
	</g>
	<g>
		<polygon fill="#ED1C24" stroke="#000000" points="149.572,0.506 140.276,16.604 177.455,16.604 168.161,0.506 		"/>
		<polygon fill="#ED1C24" stroke="#000000" points="205.336,0.502 196.04,16.602 233.219,16.602 223.925,0.503 		"/>
		<polygon fill="#ED1C24" stroke="#000000" points="93.808,0.509 84.514,16.608 121.691,16.608 112.397,0.509 		"/>
		<polygon fill="#ED1C24" stroke="#000000" points="140.28,16.607 149.574,0.508 112.397,0.509 121.692,16.607 		"/>
		<polygon fill="#ED1C24" stroke="#000000" points="196.045,16.604 205.339,0.506 168.161,0.506 177.455,16.604 		"/>
		<polygon fill="#ED1C24" stroke="#000000" points="261.1,0.5 251.804,16.598 288.984,16.598 279.689,0.501 		"/>
		<polygon fill="#ED1C24" stroke="#000000" points="251.808,16.601 261.103,0.502 223.925,0.503 233.219,16.601 		"/>
		<polygon fill="#ED1C24" stroke="#000000" points="28.749,145.396 19.453,129.298 0.866,161.496 19.455,161.496 		"/>
		<polygon fill="#ED1C24" stroke="#000000" points="56.631,97.1 47.336,81.001 28.749,113.2 47.337,113.198 		"/>
		<polygon fill="#ED1C24" stroke="#000000" points="84.513,48.804 75.218,32.706 56.63,64.903 75.219,64.902 		"/>
		<polygon fill="#ED1C24" stroke="#000000" points="19.453,129.298 28.749,145.396 47.337,113.2 28.749,113.2 		"/>
		<polygon fill="#ED1C24" stroke="#000000" points="75.218,32.706 84.513,48.804 103.101,16.608 84.513,16.608 		"/>
		<polygon fill="#ED1C24" stroke="#000000" points="47.336,81.001 56.631,97.1 75.218,64.903 56.63,64.903 		"/>
		<polygon fill="#ED1C24" stroke="#000000" points="354.05,161.486 372.638,161.486 354.048,129.29 344.753,145.387 		"/>
		<polygon fill="#ED1C24" stroke="#000000" points="298.283,64.896 316.869,64.896 298.279,32.699 288.986,48.797 		"/>
		<polygon fill="#ED1C24" stroke="#000000" points="326.166,113.191 344.753,113.19 326.164,80.995 316.871,97.092 		"/>
		<polygon fill="#ED1C24" stroke="#000000" points="344.753,113.19 326.166,113.191 344.753,145.387 354.048,129.29 		"/>
		<polygon fill="#ED1C24" stroke="#000000" points="316.869,64.896 298.281,64.896 316.871,97.092 326.164,80.995 		"/>
		<polygon fill="#ED1C24" stroke="#000000" points="288.986,16.601 270.396,16.602 288.986,48.797 298.279,32.7 		"/>
	</g>
</g>
<g>
	<polygon fill="#91278F" stroke="#000000" points="0.866,356.224 10.18,340.093 19.493,356.224 	"/>
	<g>
		<polygon fill="#5B57A6" stroke="#000000" points="19.493,356.224 28.806,340.093 38.12,356.224 		"/>
		<polygon fill="#5B57A6" stroke="#000000" points="10.18,340.093 19.493,323.962 28.806,340.093 		"/>
		<polygon fill="#5B57A6" stroke="#000000" points="10.18,340.093 19.493,356.224 28.806,340.093 		"/>
	</g>
	<g>
		<polygon fill="#0054A6" stroke="#000000" points="28.806,340.093 38.12,323.962 47.433,340.093 		"/>
		<polygon fill="#0054A6" stroke="#000000" points="19.493,323.962 28.806,307.831 38.12,323.962 		"/>
		<polygon fill="#0054A6" stroke="#000000" points="19.493,323.962 28.806,340.093 38.12,323.962 		"/>
		<polygon fill="#0054A6" stroke="#000000" points="28.806,340.093 38.12,356.224 47.433,340.093 		"/>
		<polygon fill="#0054A6" stroke="#000000" points="38.12,356.224 47.433,340.093 56.746,356.224 		"/>
	</g>
	<g>
		<polygon fill="#4B9189" stroke="#000000" points="38.12,323.962 47.433,307.831 56.746,323.962 		"/>
		<polygon fill="#4B9189" stroke="#000000" points="28.806,307.831 38.12,291.699 47.433,307.831 		"/>
		<polygon fill="#4B9189" stroke="#000000" points="28.806,307.831 38.12,323.962 47.433,307.831 		"/>
		<polygon fill="#4B9189" stroke="#000000" points="38.12,323.962 47.433,340.093 56.746,323.962 		"/>
		<polygon fill="#4B9189" stroke="#000000" points="56.746,356.224 66.06,340.093 75.373,356.224 		"/>
		<polygon fill="#4B9189" stroke="#000000" points="47.433,340.093 56.746,323.961 66.06,340.093 		"/>
		<polygon fill="#4B9189" stroke="#000000" points="47.433,340.093 56.746,356.224 66.06,340.093 		"/>
	</g>
	<g>
		<polygon fill="#8CC63F" stroke="#000000" points="47.433,307.831 56.746,291.699 66.059,307.831 		"/>
		<polygon fill="#8CC63F" stroke="#000000" points="38.12,291.699 47.433,275.568 56.746,291.699 		"/>
		<polygon fill="#8CC63F" stroke="#000000" points="38.12,291.699 47.433,307.831 56.746,291.699 		"/>
		<polygon fill="#8CC63F" stroke="#000000" points="47.433,307.831 56.746,323.962 66.059,307.831 		"/>
		<polygon fill="#8CC63F" stroke="#000000" points="75.373,356.224 84.687,340.093 94,356.224 		"/>
		<polygon fill="#8CC63F" stroke="#000000" points="66.06,340.093 75.373,323.961 84.686,340.093 		"/>
		<polygon fill="#8CC63F" stroke="#000000" points="56.746,323.961 66.06,307.83 75.373,323.961 		"/>
		<polygon fill="#8CC63F" stroke="#000000" points="56.746,323.961 66.06,340.093 75.373,323.961 		"/>
		<polygon fill="#8CC63F" stroke="#000000" points="66.06,340.093 75.373,356.224 84.686,340.093 		"/>
	</g>
	<g>
		<polygon fill="#CADB2A" stroke="#000000" points="56.746,291.699 66.059,307.831 75.373,291.699 		"/>
		<polygon fill="#CADB2A" stroke="#000000" points="56.746,291.699 66.059,275.568 75.373,291.699 		"/>
		<polygon fill="#CADB2A" stroke="#000000" points="47.433,275.568 56.746,259.438 66.059,275.568 		"/>
		<polygon fill="#CADB2A" stroke="#000000" points="47.433,275.568 56.746,291.699 66.059,275.568 		"/>
		<polygon fill="#CADB2A" stroke="#000000" points="94,356.224 103.312,340.093 112.626,356.224 		"/>
		<polygon fill="#CADB2A" stroke="#000000" points="84.687,340.093 94,323.962 103.312,340.093 		"/>
		<polygon fill="#CADB2A" stroke="#000000" points="84.687,340.093 94,356.224 103.312,340.093 		"/>
		<polygon fill="#CADB2A" stroke="#000000" points="75.373,323.961 84.686,340.093 94,323.961 		"/>
		<polygon fill="#CADB2A" stroke="#000000" points="75.373,323.961 84.686,307.83 94,323.961 		"/>
		<polygon fill="#CADB2A" stroke="#000000" points="66.06,307.83 75.373,291.699 84.686,307.83 		"/>
		<polygon fill="#CADB2A" stroke="#000000" points="66.06,307.83 75.373,323.961 84.686,307.83 		"/>
	</g>
	<g>
		<polygon fill="#ED1C24" stroke="#000000" points="131.253,291.699 140.566,307.831 149.879,291.699 		"/>
		<polygon fill="#ED1C24" stroke="#000000" points="131.253,291.699 140.566,275.568 149.879,291.699 		"/>
		<polygon fill="#ED1C24" stroke="#000000" points="121.94,275.568 131.253,259.438 140.566,275.568 		"/>
		<polygon fill="#ED1C24" stroke="#000000" points="121.94,275.568 131.253,291.699 140.566,275.568 		"/>
		<polygon fill="#ED1C24" stroke="#000000" points="168.506,356.224 177.819,340.093 187.133,356.224 		"/>
		<polygon fill="#ED1C24" stroke="#000000" points="159.193,340.093 168.506,323.962 177.819,340.093 		"/>
		<polygon fill="#ED1C24" stroke="#000000" points="159.193,340.093 168.506,356.224 177.819,340.093 		"/>
		<polygon fill="#ED1C24" stroke="#000000" points="149.879,323.961 159.193,340.093 168.506,323.961 		"/>
		<polygon fill="#ED1C24" stroke="#000000" points="149.879,323.961 159.193,307.83 168.506,323.961 		"/>
		<polygon fill="#ED1C24" stroke="#000000" points="140.566,307.83 149.879,291.699 159.193,307.83 		"/>
		<polygon fill="#ED1C24" stroke="#000000" points="140.566,307.83 149.879,323.961 159.193,307.83 		"/>
		<polygon fill="#ED1C24" stroke="#000000" points="84.687,211.045 94,227.176 103.313,211.045 		"/>
		<polygon fill="#ED1C24" stroke="#000000" points="84.687,211.045 94,194.914 103.313,211.045 		"/>
		<polygon fill="#ED1C24" stroke="#000000" points="112.626,259.438 121.94,243.308 131.253,259.438 		"/>
		<polygon fill="#ED1C24" stroke="#000000" points="112.626,259.438 121.94,275.568 131.253,259.438 		"/>
		<polygon fill="#ED1C24" stroke="#000000" points="103.313,243.307 112.626,259.438 121.94,243.307 		"/>
		<polygon fill="#ED1C24" stroke="#000000" points="103.313,243.307 112.626,227.176 121.94,243.307 		"/>
		<polygon fill="#ED1C24" stroke="#000000" points="94,227.176 103.313,211.045 112.626,227.176 		"/>
		<polygon fill="#ED1C24" stroke="#000000" points="94,227.176 103.313,243.307 112.626,227.176 		"/>
	</g>
	<g>
		<polygon fill="#FFF200" stroke="#000000" points="94,323.962 103.313,307.831 112.626,323.962 		"/>
		<polygon fill="#FFF200" stroke="#000000" points="84.686,307.831 94,291.699 103.313,307.831 		"/>
		<polygon fill="#FFF200" stroke="#000000" points="84.686,307.831 94,323.962 103.313,307.831 		"/>
		<polygon fill="#FFF200" stroke="#000000" points="94,323.962 103.313,340.093 112.626,323.962 		"/>
		<polygon fill="#FFF200" stroke="#000000" points="112.626,356.224 121.94,340.093 131.253,356.224 		"/>
		<polygon fill="#FFF200" stroke="#000000" points="103.312,340.093 112.626,323.961 121.94,340.093 		"/>
		<polygon fill="#FFF200" stroke="#000000" points="103.312,340.093 112.626,356.224 121.94,340.093 		"/>
		<polygon fill="#FFF200" stroke="#000000" points="56.746,259.438 66.059,243.308 75.373,259.438 		"/>
		<polygon fill="#FFF200" stroke="#000000" points="56.746,259.438 66.059,275.569 75.373,259.438 		"/>
		<polygon fill="#FFF200" stroke="#000000" points="75.373,291.7 84.686,275.568 93.999,291.7 		"/>
		<polygon fill="#FFF200" stroke="#000000" points="66.059,275.568 75.373,259.438 84.686,275.568 		"/>
		<polygon fill="#FFF200" stroke="#000000" points="66.059,275.568 75.373,291.7 84.686,275.568 		"/>
		<polygon fill="#FFF200" stroke="#000000" points="75.373,291.7 84.686,307.831 93.999,291.7 		"/>
	</g>
	<g>
		<polygon fill="#FFC20E" stroke="#000000" points="103.313,307.831 112.626,291.699 121.939,307.831 		"/>
		<polygon fill="#FFC20E" stroke="#000000" points="94,291.699 103.313,275.568 112.626,291.699 		"/>
		<polygon fill="#FFC20E" stroke="#000000" points="94,291.699 103.313,307.831 112.626,291.699 		"/>
		<polygon fill="#FFC20E" stroke="#000000" points="103.313,307.831 112.626,323.962 121.939,307.831 		"/>
		<polygon fill="#FFC20E" stroke="#000000" points="131.253,356.224 140.566,340.093 149.879,356.224 		"/>
		<polygon fill="#FFC20E" stroke="#000000" points="121.94,340.093 131.253,323.961 140.566,340.093 		"/>
		<polygon fill="#FFC20E" stroke="#000000" points="112.626,323.961 121.94,307.83 131.253,323.961 		"/>
		<polygon fill="#FFC20E" stroke="#000000" points="112.626,323.961 121.94,340.093 131.253,323.961 		"/>
		<polygon fill="#FFC20E" stroke="#000000" points="121.94,340.093 131.253,356.224 140.566,340.093 		"/>
		<polygon fill="#FFC20E" stroke="#000000" points="66.059,243.308 75.373,259.438 84.686,243.308 		"/>
		<polygon fill="#FFC20E" stroke="#000000" points="66.059,243.308 75.373,227.176 84.686,243.308 		"/>
		<polygon fill="#FFC20E" stroke="#000000" points="84.686,275.568 93.999,291.7 103.312,275.568 		"/>
		<polygon fill="#FFC20E" stroke="#000000" points="84.686,275.568 93.999,259.438 103.312,275.568 		"/>
		<polygon fill="#FFC20E" stroke="#000000" points="75.373,259.438 84.686,243.308 93.999,259.438 		"/>
		<polygon fill="#FFC20E" stroke="#000000" points="75.373,259.438 84.686,275.568 93.999,259.438 		"/>
	</g>
	<g>
		<polygon fill="#F7931D" stroke="#000000" points="112.626,291.699 121.939,307.831 131.253,291.699 		"/>
		<polygon fill="#F7931D" stroke="#000000" points="112.626,291.699 121.939,275.568 131.253,291.699 		"/>
		<polygon fill="#F7931D" stroke="#000000" points="103.313,275.568 112.626,259.438 121.939,275.568 		"/>
		<polygon fill="#F7931D" stroke="#000000" points="103.313,275.568 112.626,291.699 121.939,275.568 		"/>
		<polygon fill="#F7931D" stroke="#000000" points="149.879,356.224 159.193,340.093 168.506,356.224 		"/>
		<polygon fill="#F7931D" stroke="#000000" points="140.566,340.093 149.879,323.962 159.193,340.093 		"/>
		<polygon fill="#F7931D" stroke="#000000" points="140.566,340.093 149.879,356.224 159.193,340.093 		"/>
		<polygon fill="#F7931D" stroke="#000000" points="131.253,323.961 140.566,340.093 149.879,323.961 		"/>
		<polygon fill="#F7931D" stroke="#000000" points="131.253,323.961 140.566,307.83 149.879,323.961 		"/>
		<polygon fill="#F7931D" stroke="#000000" points="121.94,307.83 131.253,291.699 140.566,307.83 		"/>
		<polygon fill="#F7931D" stroke="#000000" points="121.94,307.83 131.253,323.961 140.566,307.83 		"/>
		<polygon fill="#F7931D" stroke="#000000" points="84.686,243.308 93.999,259.438 103.312,243.308 		"/>
		<polygon fill="#F7931D" stroke="#000000" points="84.686,243.308 93.999,227.176 103.312,243.308 		"/>
		<polygon fill="#F7931D" stroke="#000000" points="75.373,227.176 84.686,211.046 93.999,227.176 		"/>
		<polygon fill="#F7931D" stroke="#000000" points="75.373,227.176 84.686,243.308 93.999,227.176 		"/>
		<polygon fill="#F7931D" stroke="#000000" points="94,259.438 103.312,243.308 112.626,259.438 		"/>
		<polygon fill="#F7931D" stroke="#000000" points="94,259.438 103.312,275.568 112.626,259.438 		"/>
	</g>
</g>
<g>
	<polygon fill="#91278F" stroke="#000000" points="281.107,356.224 286.63,340.152 307.031,340.152 301.506,356.224 	"/>
	<g>
		<polygon fill="#5B57A6" stroke="#000000" points="286.63,340.152 292.156,324.08 312.555,324.08 307.031,340.152 		"/>
		<polygon fill="#5B57A6" stroke="#000000" points="301.506,356.224 307.031,340.152 327.43,340.152 321.908,356.224 		"/>
		<polygon fill="#5B57A6" stroke="#000000" points="307.031,340.152 312.555,324.08 332.957,324.08 327.43,340.152 		"/>
	</g>
	<g>
		<polygon fill="#0054A6" stroke="#000000" points="292.156,324.08 297.679,308.009 318.08,308.009 312.555,324.08 		"/>
		<polygon fill="#0054A6" stroke="#000000" points="312.555,324.08 318.08,308.009 338.479,308.009 332.957,324.08 		"/>
		<polygon fill="#0054A6" stroke="#000000" points="321.908,356.224 327.43,340.152 347.832,340.152 342.308,356.224 		"/>
		<polygon fill="#0054A6" stroke="#000000" points="327.43,340.152 332.957,324.08 353.356,324.08 347.832,340.152 		"/>
		<polygon fill="#0054A6" stroke="#000000" points="332.957,324.08 338.479,308.009 358.88,308.009 353.356,324.08 		"/>
	</g>
	<g>
		<polygon fill="#4B9189" stroke="#000000" points="297.679,308.009 303.203,291.937 323.603,291.937 318.08,308.009 		"/>
		<polygon fill="#4B9189" stroke="#000000" points="318.08,308.009 323.603,291.937 344.003,291.937 338.479,308.009 		"/>
		<polygon fill="#4B9189" stroke="#000000" points="338.479,308.009 344.003,291.937 364.404,291.937 358.88,308.009 		"/>
		<polygon fill="#4B9189" stroke="#000000" points="342.308,356.224 347.832,340.152 368.233,340.152 362.708,356.224 		"/>
		<polygon fill="#4B9189" stroke="#000000" points="347.832,340.152 353.356,324.08 373.757,324.08 368.233,340.152 		"/>
		<polygon fill="#4B9189" stroke="#000000" points="353.356,324.08 358.88,308.009 379.281,308.009 373.757,324.08 		"/>
		<polygon fill="#4B9189" stroke="#000000" points="358.88,308.009 364.404,291.937 384.805,291.937 379.281,308.009 		"/>
	</g>
	<g>
		<polygon fill="#8CC63F" stroke="#000000" points="303.203,291.937 308.727,275.865 329.126,275.865 323.603,291.937 		"/>
		<polygon fill="#8CC63F" stroke="#000000" points="323.603,291.937 329.126,275.865 349.527,275.865 344.003,291.937 		"/>
		<polygon fill="#8CC63F" stroke="#000000" points="344.003,291.937 349.527,275.865 369.927,275.865 364.404,291.937 		"/>
		<polygon fill="#8CC63F" stroke="#000000" points="364.404,291.937 369.927,275.865 390.328,275.865 384.805,291.937 		"/>
		<polygon fill="#8CC63F" stroke="#000000" points="362.708,356.224 368.233,340.152 388.632,340.152 383.109,356.224 		"/>
		<polygon fill="#8CC63F" stroke="#000000" points="368.233,340.152 373.757,324.08 394.157,324.08 388.632,340.152 		"/>
		<polygon fill="#8CC63F" stroke="#000000" points="373.757,324.08 379.281,308.009 399.681,308.009 394.157,324.08 		"/>
		<polygon fill="#8CC63F" stroke="#000000" points="379.281,308.009 384.805,291.937 405.205,291.937 399.681,308.009 		"/>
		<polygon fill="#8CC63F" stroke="#000000" points="384.805,291.937 390.328,275.865 410.728,275.865 405.205,291.937 		"/>
	</g>
	<g>
		<polygon fill="#CADB2A" stroke="#000000" points="308.727,275.865 314.251,259.794 334.652,259.794 329.126,275.865 		"/>
		<polygon fill="#CADB2A" stroke="#000000" points="329.126,275.865 334.652,259.794 355.051,259.794 349.527,275.865 		"/>
		<polygon fill="#CADB2A" stroke="#000000" points="349.527,275.865 355.051,259.794 375.453,259.794 369.927,275.865 		"/>
		<polygon fill="#CADB2A" stroke="#000000" points="369.927,275.865 375.453,259.794 395.854,259.794 390.328,275.865 		"/>
		<polygon fill="#CADB2A" stroke="#000000" points="390.328,275.865 395.854,259.794 416.253,259.794 410.728,275.865 		"/>
		<polygon fill="#CADB2A" stroke="#000000" points="383.109,356.224 388.632,340.152 409.033,340.152 403.508,356.224 		"/>
		<polygon fill="#CADB2A" stroke="#000000" points="388.632,340.152 394.157,324.08 414.556,324.08 409.033,340.152 		"/>
		<polygon fill="#CADB2A" stroke="#000000" points="394.157,324.08 399.681,308.009 420.081,308.009 414.556,324.08 		"/>
		<polygon fill="#CADB2A" stroke="#000000" points="399.681,308.009 405.205,291.937 425.605,291.937 420.081,308.009 		"/>
		<polygon fill="#CADB2A" stroke="#000000" points="405.205,291.937 410.728,275.865 431.127,275.865 425.605,291.937 		"/>
		<polygon fill="#CADB2A" stroke="#000000" points="410.728,275.865 416.253,259.794 436.653,259.794 431.127,275.865 		"/>
	</g>
	<g>
		<polygon fill="#FFF200" stroke="#000000" points="314.251,259.794 319.776,243.722 340.175,243.722 334.652,259.794 		"/>
		<polygon fill="#FFF200" stroke="#000000" points="334.652,259.794 340.175,243.722 360.574,243.722 355.051,259.794 		"/>
		<polygon fill="#FFF200" stroke="#000000" points="355.051,259.794 360.574,243.722 380.975,243.722 375.453,259.794 		"/>
		<polygon fill="#FFF200" stroke="#000000" points="375.453,259.794 380.975,243.722 401.377,243.722 395.854,259.794 		"/>
		<polygon fill="#FFF200" stroke="#000000" points="395.854,259.794 401.377,243.722 421.777,243.722 416.253,259.794 		"/>
		<polygon fill="#FFF200" stroke="#000000" points="416.253,259.794 421.777,243.722 442.177,243.722 436.653,259.794 		"/>
		<polygon fill="#FFF200" stroke="#000000" points="403.508,356.224 409.033,340.152 429.433,340.152 423.91,356.224 		"/>
		<polygon fill="#FFF200" stroke="#000000" points="409.033,340.152 414.556,324.08 434.958,324.08 429.433,340.152 		"/>
		<polygon fill="#FFF200" stroke="#000000" points="414.556,324.08 420.081,308.009 440.482,308.009 434.958,324.08 		"/>
		<polygon fill="#FFF200" stroke="#000000" points="420.081,308.009 425.605,291.937 446.005,291.937 440.482,308.009 		"/>
		<polygon fill="#FFF200" stroke="#000000" points="425.605,291.937 431.127,275.865 451.529,275.865 446.005,291.937 		"/>
		<polygon fill="#FFF200" stroke="#000000" points="431.127,275.865 436.653,259.794 457.054,259.794 451.529,275.865 		"/>
		<polygon fill="#FFF200" stroke="#000000" points="436.653,259.794 442.177,243.722 462.579,243.722 457.054,259.794 		"/>
	</g>
	<g>
		<polygon fill="#FFC20E" stroke="#000000" points="319.776,243.722 325.299,227.65 345.7,227.65 340.175,243.722 		"/>
		<polygon fill="#FFC20E" stroke="#000000" points="340.175,243.722 345.7,227.65 366.098,227.65 360.574,243.722 		"/>
		<polygon fill="#FFC20E" stroke="#000000" points="360.574,243.722 366.098,227.65 386.5,227.65 380.975,243.722 		"/>
		<polygon fill="#FFC20E" stroke="#000000" points="380.975,243.722 386.5,227.65 406.902,227.65 401.377,243.722 		"/>
		<polygon fill="#FFC20E" stroke="#000000" points="401.377,243.722 406.902,227.65 427.301,227.65 421.777,243.722 		"/>
		<polygon fill="#FFC20E" stroke="#000000" points="421.777,243.722 427.301,227.65 447.701,227.65 442.177,243.722 		"/>
		<polygon fill="#FFC20E" stroke="#000000" points="442.177,243.722 447.701,227.65 468.102,227.65 462.579,243.722 		"/>
		<polygon fill="#FFC20E" stroke="#000000" points="423.91,356.224 429.433,340.152 449.833,340.152 444.31,356.224 		"/>
		<polygon fill="#FFC20E" stroke="#000000" points="429.433,340.152 434.958,324.08 455.359,324.08 449.833,340.152 		"/>
		<polygon fill="#FFC20E" stroke="#000000" points="434.958,324.08 440.482,308.009 460.881,308.009 455.359,324.08 		"/>
		<polygon fill="#FFC20E" stroke="#000000" points="440.482,308.009 446.005,291.937 466.407,291.937 460.881,308.009 		"/>
		<polygon fill="#FFC20E" stroke="#000000" points="446.005,291.937 451.529,275.865 471.928,275.865 466.407,291.937 		"/>
		<polygon fill="#FFC20E" stroke="#000000" points="451.529,275.865 457.054,259.794 477.454,259.794 471.928,275.865 		"/>
		<polygon fill="#FFC20E" stroke="#000000" points="457.054,259.794 462.579,243.722 482.978,243.722 477.454,259.794 		"/>
		<polygon fill="#FFC20E" stroke="#000000" points="462.579,243.722 468.102,227.65 488.501,227.65 482.978,243.722 		"/>
	</g>
	<g>
		<polygon fill="#F7931D" stroke="#000000" points="325.299,227.65 330.823,211.579 351.222,211.579 345.7,227.65 		"/>
		<polygon fill="#F7931D" stroke="#000000" points="345.7,227.65 351.222,211.579 371.624,211.579 366.098,227.65 		"/>
		<polygon fill="#F7931D" stroke="#000000" points="366.098,227.65 371.624,211.579 392.023,211.579 386.5,227.65 		"/>
		<polygon fill="#F7931D" stroke="#000000" points="386.5,227.65 392.023,211.579 412.424,211.579 406.902,227.65 		"/>
		<polygon fill="#F7931D" stroke="#000000" points="406.902,227.65 412.424,211.579 432.826,211.579 427.301,227.65 		"/>
		<polygon fill="#F7931D" stroke="#000000" points="427.301,227.65 432.826,211.579 453.225,211.579 447.701,227.65 		"/>
		<polygon fill="#F7931D" stroke="#000000" points="447.701,227.65 453.225,211.579 473.626,211.579 468.102,227.65 		"/>
		<polygon fill="#F7931D" stroke="#000000" points="468.102,227.65 473.626,211.579 494.028,211.579 488.501,227.65 		"/>
		<polygon fill="#F7931D" stroke="#000000" points="444.31,356.224 449.833,340.152 470.233,340.152 464.71,356.224 		"/>
		<polygon fill="#F7931D" stroke="#000000" points="449.833,340.152 455.359,324.08 475.758,324.08 470.233,340.152 		"/>
		<polygon fill="#F7931D" stroke="#000000" points="455.359,324.08 460.881,308.009 481.281,308.009 475.758,324.08 		"/>
		<polygon fill="#F7931D" stroke="#000000" points="460.881,308.009 466.407,291.937 486.807,291.937 481.281,308.009 		"/>
		<polygon fill="#F7931D" stroke="#000000" points="466.407,291.937 471.928,275.865 492.328,275.865 486.807,291.937 		"/>
		<polygon fill="#F7931D" stroke="#000000" points="471.928,275.865 477.454,259.794 497.853,259.794 492.328,275.865 		"/>
		<polygon fill="#F7931D" stroke="#000000" points="477.454,259.794 482.978,243.722 503.377,243.722 497.853,259.794 		"/>
		<polygon fill="#F7931D" stroke="#000000" points="482.978,243.722 488.501,227.65 508.902,227.65 503.377,243.722 		"/>
		<polygon fill="#F7931D" stroke="#000000" points="488.501,227.65 494.028,211.579 514.427,211.579 508.902,227.65 		"/>
	</g>
	<g>
		<polygon fill="#ED1C24" stroke="#000000" points="330.823,211.579 336.347,195.507 356.748,195.507 351.222,211.579 		"/>
		<polygon fill="#ED1C24" stroke="#000000" points="351.222,211.579 356.748,195.507 377.146,195.507 371.624,211.579 		"/>
		<polygon fill="#ED1C24" stroke="#000000" points="371.624,211.579 377.146,195.507 397.547,195.507 392.023,211.579 		"/>
		<polygon fill="#ED1C24" stroke="#000000" points="392.023,211.579 397.547,195.507 417.949,195.507 412.424,211.579 		"/>
		<polygon fill="#ED1C24" stroke="#000000" points="412.424,211.579 417.949,195.507 438.35,195.507 432.826,211.579 		"/>
		<polygon fill="#ED1C24" stroke="#000000" points="432.826,211.579 438.35,195.507 458.75,195.507 453.225,211.579 		"/>
		<polygon fill="#ED1C24" stroke="#000000" points="453.225,211.579 458.75,195.507 479.151,195.507 473.626,211.579 		"/>
		<polygon fill="#ED1C24" stroke="#000000" points="473.626,211.579 479.151,195.507 499.55,195.507 494.028,211.579 		"/>
		<polygon fill="#ED1C24" stroke="#000000" points="494.028,211.579 499.55,195.507 519.95,195.507 514.427,211.579 		"/>
		<polygon fill="#ED1C24" stroke="#000000" points="464.71,356.224 470.233,340.152 490.634,340.152 485.112,356.224 		"/>
		<polygon fill="#ED1C24" stroke="#000000" points="470.233,340.152 475.758,324.08 496.16,324.08 490.634,340.152 		"/>
		<polygon fill="#ED1C24" stroke="#000000" points="475.758,324.08 481.281,308.009 501.682,308.009 496.16,324.08 		"/>
		<polygon fill="#ED1C24" stroke="#000000" points="481.281,308.009 486.807,291.937 507.208,291.937 501.682,308.009 		"/>
		<polygon fill="#ED1C24" stroke="#000000" points="486.807,291.937 492.328,275.865 512.729,275.865 507.208,291.937 		"/>
		<polygon fill="#ED1C24" stroke="#000000" points="492.328,275.865 497.853,259.794 518.254,259.794 512.729,275.865 		"/>
		<polygon fill="#ED1C24" stroke="#000000" points="497.853,259.794 503.377,243.722 523.779,243.722 518.254,259.794 		"/>
		<polygon fill="#ED1C24" stroke="#000000" points="503.377,243.722 508.902,227.65 529.303,227.65 523.779,243.722 		"/>
		<polygon fill="#ED1C24" stroke="#000000" points="508.902,227.65 514.427,211.579 534.829,211.579 529.303,227.65 		"/>
		<polygon fill="#ED1C24" stroke="#000000" points="514.427,211.579 519.95,195.507 540.351,195.507 534.829,211.579 		"/>
	</g>
</g>
<g>
	<rect x="379.638" y="145.415" fill="#91278F" stroke="#000000" width="16.07" height="16.071"/>
	<g>
		<rect x="379.638" y="129.342" fill="#5B57A6" stroke="#000000" width="16.07" height="16.072"/>
		<rect x="395.708" y="145.415" fill="#5B57A6" stroke="#000000" width="16.072" height="16.071"/>
		<rect x="395.708" y="129.342" fill="#5B57A6" stroke="#000000" width="16.072" height="16.072"/>
	</g>
	<g>
		<rect x="379.638" y="113.271" fill="#0054A6" stroke="#000000" width="16.07" height="16.071"/>
		<rect x="395.708" y="113.271" fill="#0054A6" stroke="#000000" width="16.072" height="16.071"/>
		<rect x="411.781" y="145.415" fill="#0054A6" stroke="#000000" width="16.07" height="16.071"/>
		<rect x="411.781" y="129.342" fill="#0054A6" stroke="#000000" width="16.07" height="16.072"/>
		<rect x="411.781" y="113.271" fill="#0054A6" stroke="#000000" width="16.07" height="16.071"/>
	</g>
	<g>
		<rect x="379.638" y="97.199" fill="#4B9189" stroke="#000000" width="16.07" height="16.072"/>
		<rect x="395.708" y="97.199" fill="#4B9189" stroke="#000000" width="16.072" height="16.072"/>
		<rect x="411.781" y="97.199" fill="#4B9189" stroke="#000000" width="16.07" height="16.072"/>
		<rect x="427.851" y="145.415" fill="#4B9189" stroke="#000000" width="16.072" height="16.071"/>
		<rect x="427.851" y="129.342" fill="#4B9189" stroke="#000000" width="16.072" height="16.072"/>
		<rect x="427.851" y="113.271" fill="#4B9189" stroke="#000000" width="16.072" height="16.071"/>
		<rect x="427.851" y="97.199" fill="#4B9189" stroke="#000000" width="16.072" height="16.072"/>
	</g>
	<g>
		<rect x="379.638" y="81.127" fill="#8CC63F" stroke="#000000" width="16.07" height="16.071"/>
		<rect x="395.708" y="81.127" fill="#8CC63F" stroke="#000000" width="16.072" height="16.071"/>
		<rect x="411.781" y="81.127" fill="#8CC63F" stroke="#000000" width="16.07" height="16.071"/>
		<rect x="427.851" y="81.127" fill="#8CC63F" stroke="#000000" width="16.072" height="16.071"/>
		<rect x="443.923" y="145.415" fill="#8CC63F" stroke="#000000" width="16.07" height="16.071"/>
		<rect x="443.923" y="129.342" fill="#8CC63F" stroke="#000000" width="16.07" height="16.072"/>
		<rect x="443.923" y="113.271" fill="#8CC63F" stroke="#000000" width="16.07" height="16.071"/>
		<rect x="443.923" y="97.199" fill="#8CC63F" stroke="#000000" width="16.07" height="16.072"/>
		<rect x="443.923" y="81.127" fill="#8CC63F" stroke="#000000" width="16.07" height="16.071"/>
	</g>
	<g>
		<rect x="379.638" y="65.056" fill="#CADB2A" stroke="#000000" width="16.07" height="16.071"/>
		<rect x="395.708" y="65.056" fill="#CADB2A" stroke="#000000" width="16.072" height="16.071"/>
		<rect x="411.781" y="65.056" fill="#CADB2A" stroke="#000000" width="16.07" height="16.071"/>
		<rect x="427.851" y="65.056" fill="#CADB2A" stroke="#000000" width="16.072" height="16.071"/>
		<rect x="443.923" y="65.056" fill="#CADB2A" stroke="#000000" width="16.07" height="16.071"/>
		<rect x="459.994" y="145.415" fill="#CADB2A" stroke="#000000" width="16.072" height="16.071"/>
		<rect x="459.994" y="129.342" fill="#CADB2A" stroke="#000000" width="16.072" height="16.072"/>
		<rect x="459.994" y="113.271" fill="#CADB2A" stroke="#000000" width="16.072" height="16.071"/>
		<rect x="459.994" y="97.199" fill="#CADB2A" stroke="#000000" width="16.072" height="16.072"/>
		<rect x="459.994" y="81.127" fill="#CADB2A" stroke="#000000" width="16.072" height="16.071"/>
		<rect x="459.994" y="65.056" fill="#CADB2A" stroke="#000000" width="16.072" height="16.071"/>
	</g>
	<g>
		<rect x="379.638" y="48.984" fill="#FFF200" stroke="#000000" width="16.07" height="16.072"/>
		<rect x="395.708" y="48.984" fill="#FFF200" stroke="#000000" width="16.072" height="16.072"/>
		<rect x="411.781" y="48.984" fill="#FFF200" stroke="#000000" width="16.07" height="16.072"/>
		<rect x="427.851" y="48.984" fill="#FFF200" stroke="#000000" width="16.072" height="16.072"/>
		<rect x="443.923" y="48.984" fill="#FFF200" stroke="#000000" width="16.07" height="16.072"/>
		<rect x="459.994" y="48.984" fill="#FFF200" stroke="#000000" width="16.072" height="16.072"/>
		<rect x="476.066" y="145.415" fill="#FFF200" stroke="#000000" width="16.07" height="16.071"/>
		<rect x="476.066" y="129.342" fill="#FFF200" stroke="#000000" width="16.07" height="16.072"/>
		<rect x="476.066" y="113.271" fill="#FFF200" stroke="#000000" width="16.07" height="16.071"/>
		<rect x="476.066" y="97.199" fill="#FFF200" stroke="#000000" width="16.07" height="16.072"/>
		<rect x="476.066" y="81.127" fill="#FFF200" stroke="#000000" width="16.07" height="16.071"/>
		<rect x="476.066" y="65.056" fill="#FFF200" stroke="#000000" width="16.07" height="16.071"/>
		<rect x="476.066" y="48.984" fill="#FFF200" stroke="#000000" width="16.07" height="16.072"/>
	</g>
	<g>
		<rect x="379.638" y="32.913" fill="#FFC20E" stroke="#000000" width="16.07" height="16.071"/>
		<rect x="395.708" y="32.913" fill="#FFC20E" stroke="#000000" width="16.072" height="16.071"/>
		<rect x="411.781" y="32.913" fill="#FFC20E" stroke="#000000" width="16.07" height="16.071"/>
		<rect x="427.851" y="32.913" fill="#FFC20E" stroke="#000000" width="16.072" height="16.071"/>
		<rect x="443.923" y="32.913" fill="#FFC20E" stroke="#000000" width="16.07" height="16.071"/>
		<rect x="459.994" y="32.913" fill="#FFC20E" stroke="#000000" width="16.072" height="16.071"/>
		<rect x="476.066" y="32.913" fill="#FFC20E" stroke="#000000" width="16.07" height="16.071"/>
		<rect x="492.136" y="145.415" fill="#FFC20E" stroke="#000000" width="16.072" height="16.071"/>
		<rect x="492.136" y="129.342" fill="#FFC20E" stroke="#000000" width="16.072" height="16.072"/>
		<rect x="492.136" y="113.271" fill="#FFC20E" stroke="#000000" width="16.072" height="16.071"/>
		<rect x="492.136" y="97.199" fill="#FFC20E" stroke="#000000" width="16.072" height="16.072"/>
		<rect x="492.136" y="81.127" fill="#FFC20E" stroke="#000000" width="16.072" height="16.071"/>
		<rect x="492.136" y="65.056" fill="#FFC20E" stroke="#000000" width="16.072" height="16.071"/>
		<rect x="492.136" y="48.984" fill="#FFC20E" stroke="#000000" width="16.072" height="16.072"/>
		<rect x="492.136" y="32.913" fill="#FFC20E" stroke="#000000" width="16.072" height="16.071"/>
	</g>
	<g>
		<rect x="379.638" y="16.841" fill="#F7931D" stroke="#000000" width="16.07" height="16.072"/>
		<rect x="395.708" y="16.841" fill="#F7931D" stroke="#000000" width="16.072" height="16.072"/>
		<rect x="411.781" y="16.841" fill="#F7931D" stroke="#000000" width="16.07" height="16.072"/>
		<rect x="427.851" y="16.841" fill="#F7931D" stroke="#000000" width="16.072" height="16.072"/>
		<rect x="443.923" y="16.841" fill="#F7931D" stroke="#000000" width="16.07" height="16.072"/>
		<rect x="459.994" y="16.841" fill="#F7931D" stroke="#000000" width="16.072" height="16.072"/>
		<rect x="476.066" y="16.841" fill="#F7931D" stroke="#000000" width="16.07" height="16.072"/>
		<rect x="492.136" y="16.841" fill="#F7931D" stroke="#000000" width="16.072" height="16.072"/>
		<rect x="508.208" y="145.415" fill="#F7931D" stroke="#000000" width="16.07" height="16.071"/>
		<rect x="508.208" y="129.342" fill="#F7931D" stroke="#000000" width="16.07" height="16.072"/>
		<rect x="508.208" y="113.271" fill="#F7931D" stroke="#000000" width="16.07" height="16.071"/>
		<rect x="508.208" y="97.199" fill="#F7931D" stroke="#000000" width="16.07" height="16.072"/>
		<rect x="508.208" y="81.127" fill="#F7931D" stroke="#000000" width="16.07" height="16.071"/>
		<rect x="508.208" y="65.056" fill="#F7931D" stroke="#000000" width="16.07" height="16.071"/>
		<rect x="508.208" y="48.984" fill="#F7931D" stroke="#000000" width="16.07" height="16.072"/>
		<rect x="508.208" y="32.913" fill="#F7931D" stroke="#000000" width="16.07" height="16.071"/>
		<rect x="508.208" y="16.841" fill="#F7931D" stroke="#000000" width="16.07" height="16.072"/>
	</g>
	<g>
		<rect x="379.638" y="0.769" fill="#ED1C24" stroke="#000000" width="16.07" height="16.072"/>
		<rect x="395.708" y="0.769" fill="#ED1C24" stroke="#000000" width="16.072" height="16.072"/>
		<rect x="411.781" y="0.769" fill="#ED1C24" stroke="#000000" width="16.07" height="16.072"/>
		<rect x="427.851" y="0.769" fill="#ED1C24" stroke="#000000" width="16.072" height="16.072"/>
		<rect x="443.923" y="0.769" fill="#ED1C24" stroke="#000000" width="16.07" height="16.072"/>
		<rect x="459.994" y="0.769" fill="#ED1C24" stroke="#000000" width="16.072" height="16.072"/>
		<rect x="476.066" y="0.769" fill="#ED1C24" stroke="#000000" width="16.07" height="16.072"/>
		<rect x="492.136" y="0.769" fill="#ED1C24" stroke="#000000" width="16.072" height="16.072"/>
		<rect x="508.208" y="0.769" fill="#ED1C24" stroke="#000000" width="16.07" height="16.072"/>
		<rect x="524.279" y="145.415" fill="#ED1C24" stroke="#000000" width="16.072" height="16.071"/>
		<rect x="524.279" y="129.342" fill="#ED1C24" stroke="#000000" width="16.072" height="16.072"/>
		<rect x="524.279" y="113.271" fill="#ED1C24" stroke="#000000" width="16.072" height="16.071"/>
		<rect x="524.279" y="97.199" fill="#ED1C24" stroke="#000000" width="16.072" height="16.072"/>
		<rect x="524.279" y="81.127" fill="#ED1C24" stroke="#000000" width="16.072" height="16.071"/>
		<rect x="524.279" y="65.056" fill="#ED1C24" stroke="#000000" width="16.072" height="16.071"/>
		<rect x="524.279" y="48.984" fill="#ED1C24" stroke="#000000" width="16.072" height="16.072"/>
		<rect x="524.279" y="32.913" fill="#ED1C24" stroke="#000000" width="16.072" height="16.071"/>
		<rect x="524.279" y="16.841" fill="#ED1C24" stroke="#000000" width="16.072" height="16.072"/>
		<rect x="524.279" y="0.769" fill="#ED1C24" stroke="#000000" width="16.072" height="16.072"/>
	</g>
</g>
</svg>
