<?xml version="1.0" standalone="no"?>
<!DOCTYPE svg PUBLIC "-//W3C//DTD SVG 20010904//EN"
 "http://www.w3.org/TR/2001/REC-SVG-20010904/DTD/svg10.dtd">
<svg version="1.0" xmlns="http://www.w3.org/2000/svg"
 width="700.000000pt" height="700.000000pt" viewBox="0 0 700.000000 700.000000"
 preserveAspectRatio="xMidYMid meet">
<metadata>
Created by potrace 1.14, written by Peter Selinger 2001-2017
</metadata>
<g transform="translate(0.000000,700.000000) scale(0.100000,-0.100000)"
fill="#000000" stroke="none">
<path d="M2039 6301 c-25 -10 -71 -36 -102 -59 -31 -23 -65 -42 -76 -42 -11 0
-38 -6 -58 -14 -56 -21 -343 -98 -407 -110 -33 -6 -139 -36 -161 -46 -11 -5
-58 -21 -105 -36 -117 -37 -306 -130 -358 -177 -10 -9 -22 -17 -26 -17 -14 0
-250 -156 -267 -176 -6 -8 -18 -14 -25 -14 -21 0 -211 -187 -260 -256 -25 -34
-58 -93 -75 -131 -16 -37 -34 -77 -39 -88 -8 -18 -22 -74 -35 -145 -3 -14 -8
-90 -10 -170 -12 -334 -15 -384 -25 -394 -14 -14 -12 -96 3 -126 7 -14 30 -59
51 -100 21 -41 42 -82 47 -90 5 -8 13 -24 18 -35 94 -209 148 -302 218 -373
78 -79 137 -110 237 -126 21 -4 41 -8 45 -10 12 -8 346 -31 431 -30 55 0 175
11 240 20 108 16 244 89 333 178 59 59 119 129 136 157 37 63 73 132 86 166 7
21 23 63 35 93 35 91 56 159 90 289 31 117 33 133 33 300 0 181 -8 233 -48
312 -16 31 -65 99 -90 124 -19 21 -122 95 -130 95 -5 0 -16 6 -24 14 -30 26
-134 53 -216 55 -94 2 -194 -27 -272 -80 -162 -108 -283 -322 -283 -500 0
-135 49 -224 164 -296 31 -20 51 -25 102 -24 35 0 83 6 107 12 72 21 95 10
116 -53 22 -66 2 -109 -92 -194 -59 -54 -211 -138 -273 -150 -139 -29 -286 22
-407 140 -183 178 -253 524 -165 811 23 76 102 209 183 310 78 97 283 285 311
285 4 0 15 6 23 14 20 17 181 101 213 110 179 52 205 55 391 52 100 -2 193 -6
207 -10 14 -3 68 -8 120 -11 105 -5 201 -13 240 -20 24 -4 156 -13 300 -20 36
-1 94 -6 129 -10 64 -7 220 -12 478 -15 135 -2 225 -16 303 -48 14 -6 52 -18
85 -28 33 -9 92 -27 130 -39 39 -13 104 -33 145 -45 192 -57 562 -180 574
-191 6 -5 17 -9 25 -9 9 0 28 -6 42 -14 24 -12 143 -54 172 -60 7 -2 19 -6 27
-9 8 -3 44 -16 79 -28 36 -12 81 -31 100 -43 87 -50 321 -217 373 -265 88 -84
270 -189 417 -243 75 -27 151 -56 169 -64 18 -8 41 -14 50 -14 10 0 22 -4 27
-8 16 -14 118 -47 435 -142 211 -63 245 -75 280 -99 143 -97 300 -58 393 98
19 32 38 74 42 92 4 19 14 44 22 56 22 34 13 75 -24 101 -18 12 -35 22 -38 22
-3 0 -36 20 -73 44 -37 23 -95 61 -130 82 -35 21 -91 56 -124 77 -74 46 -312
165 -388 194 -110 41 -142 46 -337 49 -166 2 -200 5 -254 23 -98 34 -226 106
-360 202 -68 49 -132 94 -143 101 -10 7 -28 20 -40 28 -42 31 -183 89 -286
119 -223 64 -322 91 -381 102 -121 23 -327 97 -337 121 -2 4 -9 8 -15 8 -6 0
-38 13 -71 29 -188 89 -239 112 -292 131 -116 40 -185 52 -311 51 -127 -1
-150 -5 -473 -93 -163 -44 -223 -54 -312 -52 -77 2 -82 5 -108 61 -74 153
-196 272 -320 311 -62 20 -85 20 -131 3z"/>
<path d="M3484 4400 c-55 -26 -83 -53 -150 -145 -101 -139 -155 -209 -193
-250 -35 -38 -137 -171 -172 -225 -9 -14 -26 -35 -38 -47 -11 -12 -21 -25 -21
-28 0 -5 -104 -139 -120 -155 -3 -3 -32 -39 -64 -80 -48 -61 -250 -301 -352
-420 -60 -69 -454 -533 -489 -575 -22 -27 -45 -53 -50 -59 -18 -19 -158 -187
-205 -245 -24 -31 -76 -96 -116 -146 -39 -49 -111 -144 -159 -210 -144 -199
-274 -374 -292 -393 -7 -7 -29 -39 -50 -70 -20 -31 -50 -74 -66 -94 -16 -21
-26 -38 -22 -38 4 0 -2 -15 -13 -32 -10 -18 -25 -59 -32 -90 -11 -50 -11 -64
4 -110 18 -59 50 -103 82 -112 13 -4 33 2 55 18 142 102 239 141 373 150 83 6
120 22 165 70 14 14 30 26 37 26 7 0 14 4 16 8 2 4 41 37 88 73 47 36 114 88
149 115 143 110 356 260 417 292 33 17 114 100 114 115 0 27 -30 40 -88 40
-85 -1 -135 -18 -193 -68 -111 -95 -191 -101 -205 -14 -7 42 19 100 70 157 19
20 55 79 81 131 83 167 124 227 367 533 75 96 183 213 338 369 321 322 396
407 473 538 42 72 45 92 17 132 -30 42 -63 119 -67 160 -6 51 22 101 104 181
84 82 132 108 197 108 58 0 99 -23 147 -81 55 -66 77 -112 130 -272 28 -84 55
-159 60 -168 8 -17 13 -40 24 -119 3 -25 8 -56 10 -70 2 -14 7 -124 10 -245 7
-250 7 -250 24 -325 24 -101 62 -198 89 -223 26 -24 33 -25 182 -29 167 -4
169 -5 250 -68 25 -20 77 -57 116 -83 124 -83 235 -202 349 -377 27 -41 51
-77 55 -80 3 -3 10 -14 16 -25 59 -109 158 -267 250 -402 48 -68 83 -106 150
-159 150 -118 254 -185 374 -242 104 -49 122 -55 193 -57 66 -2 77 0 78 14 1
9 2 28 3 43 4 37 -34 147 -84 248 -34 67 -197 327 -220 350 -12 12 -50 70 -50
77 -1 4 -22 33 -48 65 -26 31 -76 91 -111 135 -35 43 -69 83 -75 88 -17 15
-91 113 -214 285 -130 181 -134 187 -254 350 -84 114 -166 221 -235 308 -53
67 -350 463 -403 538 -30 42 -108 150 -173 238 -65 89 -126 171 -135 184 -18
25 -32 43 -136 167 -77 92 -70 83 -172 210 -46 57 -93 104 -114 115 -35 18
-37 18 -76 0z"/>
</g>
</svg>
